<svg width="40" height="37" viewBox="0 0 40 37" fill="none" xmlns="http://www.w3.org/2000/svg">
<path d="M6 0.847412H2C0.895937 0.848467 0.00117187 1.65376 0 2.64741V35.0474C0.00117187 36.0411 0.895937 36.8464 2 36.8474H6C7.10406 36.8464 7.99883 36.0411 8 35.0474V2.64741C7.99883 1.65376 7.10406 0.848467 6 0.847412ZM6.66664 35.0474C6.66617 35.3786 6.36797 35.647 6 35.6474H2C1.63203 35.647 1.33383 35.3786 1.33336 35.0474V28.6959L6.66664 23.8958V35.0474ZM6.66664 22.199L1.33328 26.999V2.64741C1.33375 2.31624 1.63195 2.04786 1.99992 2.04744H5.99992C6.36789 2.04786 6.66609 2.31624 6.66656 2.64741L6.66664 22.199Z" fill="#C9F7DA"/>
<path d="M16.6666 6.84739H12.6666C11.5626 6.84844 10.6678 7.65373 10.6666 8.64739V35.0474C10.6678 36.0411 11.5626 36.8464 12.6666 36.8474H16.6666C17.7707 36.8464 18.6655 36.0411 18.6666 35.0474V8.64739C18.6655 7.65373 17.7707 6.84851 16.6666 6.84739ZM17.3334 35.0474C17.3329 35.3786 17.0347 35.647 16.6667 35.6474H12.6667C12.2987 35.647 12.0005 35.3786 12.0001 35.0474V28.6959L17.3334 23.8958L17.3334 35.0474ZM17.3334 22.199L12 26.999V8.64739C12.0005 8.31622 12.2987 8.04783 12.6666 8.04741H16.6666C17.0346 8.04783 17.3328 8.31622 17.3333 8.64739V22.199H17.3334Z" fill="#C9F7DA"/>
<path d="M27.3333 12.8474H23.3333C22.2293 12.8485 21.3345 13.6538 21.3333 14.6474V35.0474C21.3345 36.0411 22.2293 36.8464 23.3333 36.8474H27.3333C28.4374 36.8464 29.3322 36.0411 29.3333 35.0474V14.6474C29.3321 13.6538 28.4374 12.8485 27.3333 12.8474ZM28 35.0474C27.9995 35.3786 27.7013 35.647 27.3333 35.6474H23.3333C22.9654 35.647 22.6672 35.3786 22.6667 35.0474V28.6959L28 23.8958V35.0474ZM28 22.199L22.6666 26.999V14.6474C22.6671 14.3163 22.9653 14.0479 23.3333 14.0475H27.3333C27.7012 14.0479 27.9994 14.3163 27.9999 14.6474V22.199H28Z" fill="#C9F7DA"/>
<path d="M38 18.8474H34C32.8959 18.8485 32.0012 19.6538 32 20.6474V35.0474C32.0012 36.0411 32.8959 36.8464 34 36.8474H38C39.1041 36.8464 39.9988 36.0411 40 35.0474V20.6474C39.9988 19.6538 39.1041 18.8485 38 18.8474ZM38.6666 35.0474C38.6662 35.3786 38.368 35.647 38 35.6474H34C33.632 35.647 33.3338 35.3786 33.3334 35.0474V28.6959L38.6667 23.8958L38.6666 35.0474ZM38.6666 22.199L33.3333 26.999V20.6474C33.3337 20.3162 33.632 20.0479 33.9999 20.0474H37.9999C38.3679 20.0479 38.6661 20.3162 38.6666 20.6474V22.199H38.6666Z" fill="#C9F7DA"/>
</svg>
