<svg width="40" height="41" viewBox="0 0 40 41" fill="none" xmlns="http://www.w3.org/2000/svg">
<path d="M38.6659 3.52687C38.6649 2.64316 38.3133 1.79594 37.6885 1.17106C37.0636 0.546185 36.2164 0.194662 35.3327 0.193604H3.33327C2.44956 0.194662 1.60234 0.546185 0.977461 1.17106C0.352581 1.79594 0.00105855 2.64316 0 3.52687V27.5264C0.00105855 28.4101 0.352581 29.2573 0.977461 29.8822C1.60234 30.5071 2.44956 30.8586 3.33327 30.8597H17.5203C17.8077 32.4715 18.4411 34.0019 19.3769 35.3454C20.3127 36.6889 21.5285 37.8136 22.9408 38.642C24.353 39.4704 25.928 39.9828 27.5573 40.1439C29.1866 40.3051 30.8315 40.1111 32.3787 39.5754C33.9258 39.0397 35.3384 38.175 36.5192 37.0408C37.7 35.9066 38.6209 34.53 39.2185 33.0057C39.8161 31.4813 40.0761 29.8456 39.9808 28.2111C39.8854 26.5766 39.4368 24.9823 38.6659 23.5378V3.52687ZM3.33327 1.52691H35.3327C35.8631 1.52691 36.3718 1.73762 36.7468 2.11269C37.1219 2.48775 37.3326 2.99645 37.3326 3.52687V5.52684H1.33331V3.52687C1.33331 2.99645 1.54402 2.48775 1.91908 2.11269C2.29415 1.73762 2.80285 1.52691 3.33327 1.52691ZM3.33327 29.5264C2.80285 29.5264 2.29415 29.3157 1.91908 28.9406C1.54402 28.5655 1.33331 28.0568 1.33331 27.5264V6.86014H37.3326V21.5719C36.3774 20.4311 35.2063 19.4902 33.8865 18.8032C32.5667 18.1162 31.1242 17.6966 29.6418 17.5685C28.1594 17.4404 26.6664 17.6063 25.2483 18.0567C23.8302 18.5072 22.515 19.2332 21.3783 20.1932H13.3331C12.8027 20.1932 12.294 20.4039 11.9189 20.779C11.5438 21.1541 11.3331 21.6628 11.3331 22.1932V24.8598C11.3331 25.3902 11.5438 25.8989 11.9189 26.274C12.294 26.6491 12.8027 26.8598 13.3331 26.8598H17.5203C17.399 27.5196 17.3363 28.1888 17.333 28.8597C17.333 29.0851 17.3537 29.3044 17.367 29.5264H3.33327ZM20.041 21.5265C19.0413 22.696 18.2907 24.057 17.835 25.5265H13.3331C13.1563 25.5265 12.9867 25.4562 12.8617 25.3312C12.7367 25.2062 12.6664 25.0366 12.6664 24.8598V22.1932C12.6664 22.0164 12.7367 21.8468 12.8617 21.7218C12.9867 21.5968 13.1563 21.5265 13.3331 21.5265H20.041ZM28.6661 38.8595C26.6883 38.8595 24.755 38.2731 23.1105 37.1743C21.4661 36.0755 20.1844 34.5137 19.4275 32.6865C18.6706 30.8593 18.4726 28.8486 18.8585 26.9089C19.2443 24.9691 20.1967 23.1873 21.5952 21.7888C22.9937 20.3903 24.7755 19.4379 26.7153 19.0521C28.655 18.6662 30.6657 18.8642 32.4929 19.6211C34.3201 20.378 35.8819 21.6597 36.9807 23.3041C38.0795 24.9486 38.6659 26.8819 38.6659 28.8597C38.6629 31.5109 37.6084 34.0527 35.7337 35.9273C33.8591 37.802 31.3173 38.8565 28.6661 38.8595Z" fill="#949499"/>
<path d="M8.6665 22.0465V21.5265C8.6665 20.8193 8.38555 20.141 7.88547 19.6409C7.38538 19.1408 6.70711 18.8599 5.99988 18.8599C5.29265 18.8599 4.61439 19.1408 4.1143 19.6409C3.61421 20.141 3.33327 20.8193 3.33327 21.5265V22.0465C3.12438 22.2325 2.95705 22.4604 2.84218 22.7154C2.72731 22.9704 2.66749 23.2468 2.66661 23.5265V26.1931C2.66661 26.7235 2.87732 27.2322 3.25239 27.6073C3.62745 27.9823 4.13615 28.1931 4.66658 28.1931H7.33319C7.86361 28.1931 8.37231 27.9823 8.74738 27.6073C9.12244 27.2322 9.33315 26.7235 9.33315 26.1931V23.5265C9.33228 23.2468 9.27245 22.9704 9.15758 22.7154C9.04272 22.4604 8.87538 22.2325 8.6665 22.0465ZM5.99988 20.1932C6.35307 20.1949 6.69141 20.3355 6.94187 20.5845C7.06623 20.7078 7.16486 20.8546 7.23204 21.0163C7.29922 21.178 7.3336 21.3514 7.33319 21.5265H4.66658C4.66658 21.1729 4.80705 20.8338 5.05709 20.5837C5.30714 20.3337 5.64627 20.1932 5.99988 20.1932ZM7.99985 26.1931C7.99985 26.3699 7.92961 26.5395 7.80459 26.6645C7.67956 26.7895 7.51 26.8597 7.33319 26.8597H4.66658C4.48977 26.8597 4.3202 26.7895 4.19518 26.6645C4.07016 26.5395 3.99992 26.3699 3.99992 26.1931V23.5265C3.99992 23.3497 4.07016 23.1801 4.19518 23.0551C4.3202 22.9301 4.48977 22.8598 4.66658 22.8598H7.33319C7.51 22.8598 7.67956 22.9301 7.80459 23.0551C7.92961 23.1801 7.99985 23.3497 7.99985 23.5265V26.1931Z" fill="#949499"/>
<path d="M5.99988 25.5265C6.36806 25.5265 6.66653 25.228 6.66653 24.8598C6.66653 24.4916 6.36806 24.1932 5.99988 24.1932C5.6317 24.1932 5.33323 24.4916 5.33323 24.8598C5.33323 25.228 5.6317 25.5265 5.99988 25.5265Z" fill="#949499"/>
<path d="M13.3331 16.1933H33.9994C34.5298 16.1933 35.0385 15.9826 35.4135 15.6075C35.7886 15.2325 35.9993 14.7238 35.9993 14.1933V11.5267C35.9993 10.9963 35.7886 10.4876 35.4135 10.1125C35.0385 9.73748 34.5298 9.52677 33.9994 9.52677H13.3331C12.8027 9.52677 12.294 9.73748 11.9189 10.1125C11.5438 10.4876 11.3331 10.9963 11.3331 11.5267V14.1933C11.3331 14.7238 11.5438 15.2325 11.9189 15.6075C12.294 15.9826 12.8027 16.1933 13.3331 16.1933ZM12.6664 11.5267C12.6664 11.3499 12.7367 11.1804 12.8617 11.0553C12.9867 10.9303 13.1563 10.8601 13.3331 10.8601H33.9994C34.1762 10.8601 34.3457 10.9303 34.4707 11.0553C34.5958 11.1804 34.666 11.3499 34.666 11.5267V14.1933C34.666 14.3702 34.5958 14.5397 34.4707 14.6647C34.3457 14.7898 34.1762 14.86 33.9994 14.86H13.3331C13.1563 14.86 12.9867 14.7898 12.8617 14.6647C12.7367 14.5397 12.6664 14.3702 12.6664 14.1933V11.5267Z" fill="#949499"/>
<path d="M7.83918 12.7827C8.22447 12.4155 8.49105 11.9414 8.60463 11.4214C8.71821 10.9014 8.67358 10.3593 8.47649 9.8649C8.27939 9.37049 7.93886 8.94637 7.4987 8.64712C7.05854 8.34787 6.53891 8.18719 6.00666 8.18575C5.47441 8.1843 4.95391 8.34217 4.51214 8.63903C4.07037 8.93589 3.72754 9.35816 3.52777 9.85149C3.328 10.3448 3.28044 10.8867 3.39119 11.4073C3.50195 11.9279 3.76596 12.4034 4.14925 12.7727C4.01156 12.8585 3.88052 12.9545 3.75726 13.06C3.41404 13.3728 3.13979 13.7537 2.95201 14.1784C2.76422 14.6031 2.66702 15.0623 2.66661 15.5266V16.1933C2.66661 16.5469 2.80709 16.886 3.05713 17.1361C3.30717 17.3861 3.64631 17.5266 3.99992 17.5266H7.99985C8.35346 17.5266 8.69259 17.3861 8.94264 17.1361C9.19268 16.886 9.33315 16.5469 9.33315 16.1933V15.64C9.33204 15.0787 9.19568 14.526 8.93562 14.0286C8.67556 13.5312 8.29946 13.1039 7.83918 12.7827ZM5.99988 9.52674C6.26359 9.52674 6.52137 9.60494 6.74063 9.75145C6.95989 9.89795 7.13078 10.1062 7.2317 10.3498C7.33261 10.5934 7.35902 10.8615 7.30757 11.1202C7.25613 11.3788 7.12914 11.6164 6.94267 11.8028C6.75621 11.9893 6.51863 12.1163 6.26 12.1677C6.00136 12.2192 5.73328 12.1928 5.48965 12.0919C5.24602 11.991 5.03778 11.8201 4.89128 11.6008C4.74477 11.3815 4.66658 11.1238 4.66658 10.8601C4.66658 10.5064 4.80705 10.1673 5.05709 9.91726C5.30714 9.66722 5.64627 9.52674 5.99988 9.52674ZM7.99985 16.1933H3.99992V15.5266C4.00007 15.248 4.0583 14.9725 4.17091 14.7177C4.28351 14.4629 4.44801 14.2343 4.65391 14.0467C5.02119 13.7102 5.50179 13.5245 5.99988 13.5267C6.06655 13.5267 6.13321 13.5267 6.19988 13.536C6.70603 13.6042 7.16933 13.8564 7.50134 14.2445C7.83335 14.6326 8.01081 15.1294 7.99985 15.64V16.1933Z" fill="#949499"/>
<path d="M8.66649 4.19352C9.03468 4.19352 9.33315 3.89505 9.33315 3.52687C9.33315 3.15869 9.03468 2.86022 8.66649 2.86022C8.29831 2.86022 7.99984 3.15869 7.99984 3.52687C7.99984 3.89505 8.29831 4.19352 8.66649 4.19352Z" fill="#949499"/>
<path d="M5.99988 4.19352C6.36806 4.19352 6.66653 3.89505 6.66653 3.52687C6.66653 3.15869 6.36806 2.86022 5.99988 2.86022C5.6317 2.86022 5.33323 3.15869 5.33323 3.52687C5.33323 3.89505 5.6317 4.19352 5.99988 4.19352Z" fill="#949499"/>
<path d="M3.33327 4.19352C3.70145 4.19352 3.99992 3.89505 3.99992 3.52687C3.99992 3.15869 3.70145 2.86022 3.33327 2.86022C2.96508 2.86022 2.66661 3.15869 2.66661 3.52687C2.66661 3.89505 2.96508 4.19352 3.33327 4.19352Z" fill="#949499"/>
<path d="M17.333 4.19352H22.6662C22.843 4.19352 23.0126 4.12329 23.1376 3.99827C23.2626 3.87324 23.3329 3.70368 23.3329 3.52687C23.3329 3.35006 23.2626 3.1805 23.1376 3.05548C23.0126 2.93045 22.843 2.86022 22.6662 2.86022H17.333C17.1562 2.86022 16.9866 2.93045 16.8616 3.05548C16.7366 3.1805 16.6663 3.35006 16.6663 3.52687C16.6663 3.70368 16.7366 3.87324 16.8616 3.99827C16.9866 4.12329 17.1562 4.19352 17.333 4.19352Z" fill="#949499"/>
<path d="M33.9994 26.8598H30.6661V23.5265C30.6661 23.1729 30.5256 22.8337 30.2756 22.5837C30.0255 22.3337 29.6864 22.1932 29.3328 22.1932H27.9995C27.6459 22.1932 27.3067 22.3337 27.0567 22.5837C26.8066 22.8337 26.6662 23.1729 26.6662 23.5265V26.8598H23.3329C22.9793 26.8598 22.6401 27.0002 22.3901 27.2503C22.1401 27.5003 21.9996 27.8395 21.9996 28.1931V29.5264C21.9996 29.88 22.1401 30.2191 22.3901 30.4692C22.6401 30.7192 22.9793 30.8597 23.3329 30.8597H26.6662V34.193C26.6662 34.5466 26.8066 34.8857 27.0567 35.1358C27.3067 35.3858 27.6459 35.5263 27.9995 35.5263H29.3328C29.6864 35.5263 30.0255 35.3858 30.2756 35.1358C30.5256 34.8857 30.6661 34.5466 30.6661 34.193V30.8597H33.9994C34.353 30.8597 34.6921 30.7192 34.9422 30.4692C35.1922 30.2191 35.3327 29.88 35.3327 29.5264V28.1931C35.3327 27.8395 35.1922 27.5003 34.9422 27.2503C34.6921 27.0002 34.353 26.8598 33.9994 26.8598ZM33.9994 29.5264H29.9994C29.8226 29.5264 29.6531 29.5966 29.528 29.7216C29.403 29.8467 29.3328 30.0162 29.3328 30.193V34.193H27.9995V30.193C27.9995 30.0162 27.9292 29.8467 27.8042 29.7216C27.6792 29.5966 27.5096 29.5264 27.3328 29.5264H23.3329V28.1931H27.3328C27.5096 28.1931 27.6792 28.1228 27.8042 27.9978C27.9292 27.8728 27.9995 27.7032 27.9995 27.5264V23.5265H29.3328V27.5264C29.3328 27.7032 29.403 27.8728 29.528 27.9978C29.6531 28.1228 29.8226 28.1931 29.9994 28.1931H33.9994V29.5264Z" fill="#949499"/>
</svg>
