<svg width="40" height="40" viewBox="0 0 40 40" fill="none" xmlns="http://www.w3.org/2000/svg">
<path d="M38.8067 29.375H15.568C14.91 29.375 14.3749 29.9119 14.3749 30.5719V38.803C14.3749 39.4629 14.9102 39.9999 15.568 39.9999H38.8067C39.4645 39.9999 39.9998 39.463 39.9998 38.803V30.5719C39.9998 29.9121 39.4645 29.375 38.8067 29.375ZM15.625 38.75V30.6251H38.7498V38.75H15.625Z" fill="#949499"/>
<path d="M24.4318 18.1252H1.19319C0.535211 18.1252 0 18.6622 0 19.3222V27.5533C0 28.2131 0.535303 28.7501 1.1931 28.7501H24.4318C25.0896 28.7501 25.6249 28.2133 25.6247 27.5533V19.3222C25.6248 18.6622 25.0897 18.1252 24.4318 18.1252ZM1.25023 27.5002V19.3752H24.375V27.5002H1.25023Z" fill="#949499"/>
<path d="M11.9468 29.375H1.17845C0.528798 29.375 0.000178812 29.9119 0.000178812 30.5719V38.803C0.000178812 39.4629 0.528798 39.9999 1.17845 39.9999H11.9468C12.5964 39.9999 13.125 39.463 13.125 38.803V30.5719C13.125 29.9121 12.5965 29.375 11.9468 29.375ZM11.8751 38.75H1.25023V30.6251H11.8751V38.75Z" fill="#949499"/>
<path d="M14.6851 15.6253H10.9402C10.4219 15.6253 10.0002 16.0726 10.0002 16.6224V18.7502H11.2501V16.8752H14.3751V18.7502H15.625V16.6224C15.625 16.0726 15.2034 15.6253 14.6851 15.6253Z" fill="#949499"/>
<path d="M7.81028 15.6253H4.06535C3.5469 15.6253 3.12521 16.0726 3.12521 16.6224V18.7502H4.37516V16.8752H7.5001V18.7502H8.75024V16.6224C8.75024 16.0726 8.32855 15.6253 7.81028 15.6253Z" fill="#949499"/>
<path d="M22.1851 15.6253H18.44C17.9217 15.6253 17.5 16.0726 17.5 16.6224V18.7502H18.75V16.8752H21.8749V18.7502H23.125V16.6224C23.1251 16.0726 22.7034 15.6253 22.1851 15.6253Z" fill="#949499"/>
<path d="M39.9593 13.4759C39.8773 13.1697 39.6805 12.9143 39.4052 12.757L19.557 1.40747C18.9925 1.08383 18.2678 1.27728 17.9411 1.83794L13.9112 8.75193C13.7515 9.02393 13.7084 9.34207 13.7898 9.64767C13.8716 9.95483 14.0688 10.211 14.3448 10.3686L34.1944 21.7196C34.379 21.8251 34.5811 21.875 34.7806 21.875C35.1901 21.8749 35.5896 21.6641 35.8087 21.2878L39.8396 14.3727C39.9987 14.0999 40.0412 13.7813 39.9593 13.4759ZM34.7607 20.6037L15.0274 9.31909L18.9889 2.52248L38.7227 13.8065L34.7607 20.6037Z" fill="#949499"/>
<path d="M32.5875 5.8816L29.2305 3.87899C29.015 3.75091 28.761 3.71676 28.5154 3.78305C28.2589 3.85208 28.0357 4.02804 27.9036 4.26552L26.875 6.10754L27.9662 6.71691L28.8612 5.1143L31.7076 6.81222L30.7946 8.4455L31.8857 9.05533L32.9157 7.21257C33.1761 6.74374 33.0297 6.14719 32.5875 5.8816Z" fill="#949499"/>
<path d="M26.3376 2.13201L22.9819 0.129686C22.7663 0.00142183 22.5128 -0.0332763 22.2675 0.032641C22.011 0.101396 21.7875 0.277359 21.6542 0.515576L20.6251 2.35668L21.7162 2.96651L22.6117 1.36454L25.4571 3.06245L24.5445 4.69555L25.6356 5.3052L26.6653 3.4629C26.9276 2.99242 26.7802 2.39522 26.3376 2.13201Z" fill="#949499"/>
<path d="M38.8368 9.63173L35.4804 7.62912C35.2653 7.50113 35.0115 7.46708 34.7658 7.53299C34.5093 7.60202 34.286 7.77799 34.1535 8.01566L33.1249 9.85749L34.2161 10.4669L35.1111 8.86425L37.9568 10.5623L37.0445 12.1956L38.1357 12.8052L39.164 10.9644C39.4273 10.4942 39.2803 9.89622 38.8368 9.63173Z" fill="#949499"/>
<path d="M36.5598 26.8751H32.815C32.2965 26.8751 31.8748 27.3224 31.8748 27.8723V30.0001H33.1248V28.1251H36.2497V30.0001H37.4999V27.8723C37.5 27.3224 37.0781 26.8751 36.5598 26.8751Z" fill="#949499"/>
</svg>
