<svg width="40" height="41" viewBox="0 0 40 41" fill="none" xmlns="http://www.w3.org/2000/svg">
<path d="M38.408 16.3617L36.5413 4.50508C36.4464 3.89965 36.2331 3.31884 35.9137 2.79582C35.5943 2.2728 35.175 1.81782 34.6798 1.45684C34.1845 1.09587 33.623 0.835979 33.0273 0.692007C32.4316 0.548035 31.8134 0.522803 31.208 0.61775L4.86667 4.75108C4.27169 4.84653 3.70164 5.05937 3.1897 5.3772C2.67775 5.69504 2.23414 6.11152 1.88467 6.60242C1.12336 7.64646 0.805391 8.94902 1 10.2264L1.07733 10.7184V10.7304L1.91867 16.0977C1.32466 16.5297 0.841198 17.0959 0.507751 17.7503C0.174304 18.4047 0.000319925 19.1286 0 19.8631V35.8631C0.00141157 37.1003 0.49353 38.2865 1.36839 39.1614C2.24326 40.0362 3.42942 40.5283 4.66667 40.5298H35.3333C36.5706 40.5283 37.7567 40.0362 38.6316 39.1614C39.5065 38.2865 39.9986 37.1003 40 35.8631V19.8631C39.9996 19.1997 39.8574 18.5441 39.5828 17.9402C39.3082 17.3363 38.9077 16.7981 38.408 16.3617ZM35.4313 6.00975L36.9193 15.4797C36.4113 15.2935 35.8745 15.1976 35.3333 15.1964H4.66667C4.15718 15.1972 3.65131 15.2819 3.16933 15.4471L2.50267 11.1758L35.4313 6.00975ZM2.96467 7.38708C3.21087 7.0389 3.52374 6.74305 3.88514 6.51669C4.24653 6.29033 4.64927 6.13796 5.07 6.06842L31.418 1.93508C32.288 1.79807 33.1769 2.01138 33.89 2.52829C34.603 3.04521 35.0823 3.82362 35.2227 4.69308L2.30933 9.85642C2.21383 8.9808 2.44664 8.1009 2.96267 7.38708H2.96467ZM38.6667 35.8631C38.6656 36.7468 38.3141 37.594 37.6892 38.2189C37.0643 38.8438 36.2171 39.1954 35.3333 39.1964H4.66667C3.78294 39.1954 2.93571 38.8438 2.31081 38.2189C1.68592 37.594 1.33439 36.7468 1.33333 35.8631V19.8631C1.33439 18.9794 1.68592 18.1321 2.31081 17.5072C2.93571 16.8823 3.78294 16.5308 4.66667 16.5298H35.3333C36.2171 16.5308 37.0643 16.8823 37.6892 17.5072C38.3141 18.1321 38.6656 18.9794 38.6667 19.8631V35.8631Z" fill="#949499"/>
<path d="M5.33334 24.5297H10.6667C11.1971 24.5297 11.7058 24.319 12.0809 23.9439C12.456 23.5689 12.6667 23.0602 12.6667 22.5297V21.1964C12.6667 20.666 12.456 20.1572 12.0809 19.7822C11.7058 19.4071 11.1971 19.1964 10.6667 19.1964H5.33334C4.80291 19.1964 4.2942 19.4071 3.91913 19.7822C3.54405 20.1572 3.33334 20.666 3.33334 21.1964V22.5297C3.33334 23.0602 3.54405 23.5689 3.91913 23.9439C4.2942 24.319 4.80291 24.5297 5.33334 24.5297ZM4.66667 21.1964C4.66667 21.0196 4.73691 20.85 4.86194 20.725C4.98696 20.6 5.15653 20.5297 5.33334 20.5297H10.6667C10.8435 20.5297 11.0131 20.6 11.1381 20.725C11.2631 20.85 11.3333 21.0196 11.3333 21.1964V22.5297C11.3333 22.7065 11.2631 22.8761 11.1381 23.0011C11.0131 23.1262 10.8435 23.1964 10.6667 23.1964H5.33334C5.15653 23.1964 4.98696 23.1262 4.86194 23.0011C4.73691 22.8761 4.66667 22.7065 4.66667 22.5297V21.1964Z" fill="#949499"/>
<path d="M28.6667 24.5297H30C30.3536 24.5297 30.6928 24.3892 30.9428 24.1392C31.1929 23.8892 31.3333 23.55 31.3333 23.1964V20.5297C31.3333 20.1761 31.1929 19.837 30.9428 19.5869C30.6928 19.3369 30.3536 19.1964 30 19.1964H28.6667C28.313 19.1964 27.9739 19.3369 27.7239 19.5869C27.4738 19.837 27.3333 20.1761 27.3333 20.5297V23.1964C27.3333 23.55 27.4738 23.8892 27.7239 24.1392C27.9739 24.3892 28.313 24.5297 28.6667 24.5297ZM28.6667 20.5297H30V23.1964H28.6667V20.5297Z" fill="#949499"/>
<path d="M26 23.1964V20.5297C26 20.1761 25.8595 19.837 25.6095 19.5869C25.3594 19.3369 25.0203 19.1964 24.6667 19.1964H23.3333C22.9797 19.1964 22.6406 19.3369 22.3905 19.5869C22.1405 19.837 22 20.1761 22 20.5297V23.1964C22 23.55 22.1405 23.8892 22.3905 24.1392C22.6406 24.3892 22.9797 24.5297 23.3333 24.5297H24.6667C25.0203 24.5297 25.3594 24.3892 25.6095 24.1392C25.8595 23.8892 26 23.55 26 23.1964ZM23.3333 20.5297H24.6667V23.1964H23.3333V20.5297Z" fill="#949499"/>
<path d="M35.3333 19.1964H34C33.6464 19.1964 33.3072 19.3369 33.0572 19.5869C32.8071 19.837 32.6667 20.1761 32.6667 20.5297V23.1964C32.6667 23.55 32.8071 23.8892 33.0572 24.1392C33.3072 24.3892 33.6464 24.5297 34 24.5297H35.3333C35.687 24.5297 36.0261 24.3892 36.2761 24.1392C36.5262 23.8892 36.6667 23.55 36.6667 23.1964V20.5297C36.6667 20.1761 36.5262 19.837 36.2761 19.5869C36.0261 19.3369 35.687 19.1964 35.3333 19.1964ZM35.3333 23.1964H34V20.5297H35.3333V23.1964Z" fill="#949499"/>
<path d="M19.3333 34.5298H4.00001C3.8232 34.5298 3.65363 34.6 3.5286 34.725C3.40358 34.85 3.33334 35.0196 3.33334 35.1964C3.33334 35.3732 3.40358 35.5428 3.5286 35.6678C3.65363 35.7929 3.8232 35.8631 4.00001 35.8631H19.3333C19.5102 35.8631 19.6797 35.7929 19.8047 35.6678C19.9298 35.5428 20 35.3732 20 35.1964C20 35.0196 19.9298 34.85 19.8047 34.725C19.6797 34.6 19.5102 34.5298 19.3333 34.5298Z" fill="#949499"/>
<path d="M4.00001 32.5297H7.33334C7.51015 32.5297 7.67972 32.4595 7.80474 32.3345C7.92977 32.2094 8.00001 32.0399 8.00001 31.8631C8.00001 31.6863 7.92977 31.5167 7.80474 31.3917C7.67972 31.2666 7.51015 31.1964 7.33334 31.1964H4.00001C3.8232 31.1964 3.65363 31.2666 3.5286 31.3917C3.40358 31.5167 3.33334 31.6863 3.33334 31.8631C3.33334 32.0399 3.40358 32.2094 3.5286 32.3345C3.65363 32.4595 3.8232 32.5297 4.00001 32.5297Z" fill="#949499"/>
<path d="M9.33332 31.8631C9.33332 32.0399 9.40356 32.2094 9.52859 32.3345C9.65361 32.4595 9.82318 32.5297 9.99999 32.5297H13.3333C13.5101 32.5297 13.6797 32.4595 13.8047 32.3345C13.9298 32.2094 14 32.0399 14 31.8631C14 31.6863 13.9298 31.5167 13.8047 31.3917C13.6797 31.2666 13.5101 31.1964 13.3333 31.1964H9.99999C9.82318 31.1964 9.65361 31.2666 9.52859 31.3917C9.40356 31.5167 9.33332 31.6863 9.33332 31.8631Z" fill="#949499"/>
<path d="M19.3333 31.1964H16C15.8232 31.1964 15.6536 31.2666 15.5286 31.3917C15.4036 31.5167 15.3333 31.6863 15.3333 31.8631C15.3333 32.0399 15.4036 32.2094 15.5286 32.3345C15.6536 32.4595 15.8232 32.5297 16 32.5297H19.3333C19.5101 32.5297 19.6797 32.4595 19.8047 32.3345C19.9298 32.2094 20 32.0399 20 31.8631C20 31.6863 19.9298 31.5167 19.8047 31.3917C19.6797 31.2666 19.5101 31.1964 19.3333 31.1964Z" fill="#949499"/>
<path d="M30 25.8631C28.8133 25.8631 27.6533 26.215 26.6666 26.8743C25.6799 27.5335 24.9108 28.4706 24.4567 29.567C24.0026 30.6633 23.8838 31.8697 24.1153 33.0336C24.3468 34.1975 24.9182 35.2666 25.7574 36.1057C26.5965 36.9448 27.6656 37.5163 28.8295 37.7478C29.9933 37.9793 31.1997 37.8605 32.2961 37.4063C33.3925 36.9522 34.3295 36.1832 34.9888 35.1965C35.6481 34.2098 36 33.0498 36 31.8631C35.9982 30.2723 35.3655 28.7472 34.2407 27.6224C33.1159 26.4975 31.5908 25.8648 30 25.8631ZM25.3867 32.5297H27.35C27.3842 33.7531 27.6266 34.9617 28.0667 36.1037C27.3571 35.7792 26.74 35.282 26.2719 34.6577C25.8038 34.0335 25.4994 33.3019 25.3867 32.5297ZM27.35 31.1964H25.3867C25.4994 30.4243 25.8038 29.6927 26.2719 29.0684C26.74 28.4441 27.3571 27.947 28.0667 27.6224C27.6266 28.7644 27.3842 29.973 27.35 31.1964ZM30 36.5297C29.6427 36.5297 28.8093 35.1297 28.684 32.5297H31.316C31.1907 35.1297 30.3573 36.5297 30 36.5297ZM28.684 31.1964C28.8093 28.5964 29.6427 27.1964 30 27.1964C30.3573 27.1964 31.1907 28.5964 31.316 31.1964H28.684ZM31.9333 36.1037C32.3734 34.9617 32.6158 33.7531 32.65 32.5297H34.6133C34.5006 33.3019 34.1962 34.0335 33.7281 34.6577C33.26 35.282 32.6429 35.7792 31.9333 36.1037ZM32.65 31.1964C32.6158 29.973 32.3734 28.7644 31.9333 27.6224C32.6429 27.947 33.26 28.4441 33.7281 29.0684C34.1962 29.6927 34.5006 30.4243 34.6133 31.1964H32.65Z" fill="#949499"/>
</svg>
