<svg width="16" height="16" viewBox="0 0 16 16" fill="none" xmlns="http://www.w3.org/2000/svg">
<path d="M8 0C6.41775 0 4.87103 0.469192 3.55544 1.34824C2.23985 2.22729 1.21447 3.47672 0.608967 4.93853C0.00346627 6.40034 -0.15496 8.00887 0.153721 9.56072C0.462403 11.1126 1.22433 12.538 2.34315 13.6569C3.46197 14.7757 4.88743 15.5376 6.43928 15.8463C7.99113 16.155 9.59966 15.9965 11.0615 15.391C12.5233 14.7855 13.7727 13.7602 14.6518 12.4446C15.5308 11.129 16 9.58225 16 8C16 5.87827 15.1571 3.84344 13.6569 2.34315C12.1566 0.842854 10.1217 0 8 0ZM8 14.8571C6.64379 14.8571 5.31803 14.455 4.19038 13.7015C3.06273 12.948 2.18383 11.8771 1.66483 10.6241C1.14583 9.37113 1.01003 7.99239 1.27462 6.66224C1.5392 5.33208 2.19228 4.11026 3.15127 3.15127C4.11026 2.19228 5.33209 1.5392 6.66224 1.27461C7.9924 1.01003 9.37114 1.14582 10.6241 1.66483C11.8771 2.18383 12.948 3.06272 13.7015 4.19037C14.455 5.31803 14.8571 6.64378 14.8571 8C14.8571 9.81863 14.1347 11.5628 12.8487 12.8487C11.5628 14.1347 9.81863 14.8571 8 14.8571Z" fill="url(#paint0_linear_138_1437)"/>
<path d="M8 0C6.41775 0 4.87103 0.469192 3.55544 1.34824C2.23985 2.22729 1.21447 3.47672 0.608967 4.93853C0.00346627 6.40034 -0.15496 8.00887 0.153721 9.56072C0.462403 11.1126 1.22433 12.538 2.34315 13.6569C3.46197 14.7757 4.88743 15.5376 6.43928 15.8463C7.99113 16.155 9.59966 15.9965 11.0615 15.391C12.5233 14.7855 13.7727 13.7602 14.6518 12.4446C15.5308 11.129 16 9.58225 16 8C16 5.87827 15.1571 3.84344 13.6569 2.34315C12.1566 0.842854 10.1217 0 8 0ZM8 14.8571C6.64379 14.8571 5.31803 14.455 4.19038 13.7015C3.06273 12.948 2.18383 11.8771 1.66483 10.6241C1.14583 9.37113 1.01003 7.99239 1.27462 6.66224C1.5392 5.33208 2.19228 4.11026 3.15127 3.15127C4.11026 2.19228 5.33209 1.5392 6.66224 1.27461C7.9924 1.01003 9.37114 1.14582 10.6241 1.66483C11.8771 2.18383 12.948 3.06272 13.7015 4.19037C14.455 5.31803 14.8571 6.64378 14.8571 8C14.8571 9.81863 14.1347 11.5628 12.8487 12.8487C11.5628 14.1347 9.81863 14.8571 8 14.8571Z" fill="#F2F2FA" fill-opacity="0.5"/>
<path d="M7.42865 3.42852H8.5715V9.71423H7.42865V3.42852Z" fill="url(#paint1_linear_138_1437)"/>
<path d="M7.42865 3.42852H8.5715V9.71423H7.42865V3.42852Z" fill="#F2F2FA" fill-opacity="0.5"/>
<path d="M7.99985 11.4285C7.83033 11.4285 7.66461 11.4788 7.52365 11.573C7.38269 11.6672 7.27283 11.801 7.20796 11.9576C7.14308 12.1143 7.12611 12.2866 7.15918 12.4529C7.19225 12.6191 7.27389 12.7719 7.39376 12.8917C7.51363 13.0116 7.66636 13.0933 7.83263 13.1263C7.9989 13.1594 8.17124 13.1424 8.32787 13.0776C8.48449 13.0127 8.61836 12.9028 8.71254 12.7619C8.80672 12.6209 8.85699 12.4552 8.85699 12.2857C8.85699 12.0583 8.76669 11.8403 8.60594 11.6796C8.4452 11.5188 8.22718 11.4285 7.99985 11.4285Z" fill="url(#paint2_linear_138_1437)"/>
<path d="M7.99985 11.4285C7.83033 11.4285 7.66461 11.4788 7.52365 11.573C7.38269 11.6672 7.27283 11.801 7.20796 11.9576C7.14308 12.1143 7.12611 12.2866 7.15918 12.4529C7.19225 12.6191 7.27389 12.7719 7.39376 12.8917C7.51363 13.0116 7.66636 13.0933 7.83263 13.1263C7.9989 13.1594 8.17124 13.1424 8.32787 13.0776C8.48449 13.0127 8.61836 12.9028 8.71254 12.7619C8.80672 12.6209 8.85699 12.4552 8.85699 12.2857C8.85699 12.0583 8.76669 11.8403 8.60594 11.6796C8.4452 11.5188 8.22718 11.4285 7.99985 11.4285Z" fill="#F2F2FA" fill-opacity="0.5"/>
<defs>
<linearGradient id="paint0_linear_138_1437" x1="0.676056" y1="-1.98621" x2="17.6355" y2="-0.517858" gradientUnits="userSpaceOnUse">
<stop stop-color="#A4FFB8"/>
<stop offset="1" stop-color="#46A6FF"/>
</linearGradient>
<linearGradient id="paint1_linear_138_1437" x1="0.676056" y1="-1.98621" x2="17.6355" y2="-0.517858" gradientUnits="userSpaceOnUse">
<stop stop-color="#A4FFB8"/>
<stop offset="1" stop-color="#46A6FF"/>
</linearGradient>
<linearGradient id="paint2_linear_138_1437" x1="0.676056" y1="-1.98621" x2="17.6355" y2="-0.517858" gradientUnits="userSpaceOnUse">
<stop stop-color="#A4FFB8"/>
<stop offset="1" stop-color="#46A6FF"/>
</linearGradient>
</defs>
</svg>
