<svg width="40" height="35" viewBox="0 0 40 35" fill="none" xmlns="http://www.w3.org/2000/svg">
<path d="M38.6667 7.5333H11.3333C10.9651 7.5333 10.6667 7.83178 10.6667 8.19997C10.6667 8.56816 10.9651 8.86664 11.3333 8.86664H15.3633C12.4047 10.7493 10.6286 14.0267 10.6667 17.5333C10.6286 21.0399 12.4047 24.3173 15.3633 26.2H1.33333V8.86664H8C8.36819 8.86664 8.66667 8.56816 8.66667 8.19997C8.66667 7.83178 8.36819 7.5333 8 7.5333H1.33333C0.596954 7.5333 0 8.13026 0 8.86664V26.2C0 26.9363 0.596954 27.5333 1.33333 27.5333H38.6667C39.403 27.5333 40 26.9363 40 26.2V8.86664C40 8.13026 39.403 7.5333 38.6667 7.5333ZM12 17.5333C12 12.7546 15.5887 8.86664 20 8.86664C24.4113 8.86664 28 12.7546 28 17.5333C28 22.312 24.4113 26.2 20 26.2C15.5887 26.2 12 22.312 12 17.5333ZM38.6667 26.2H24.6367C27.5953 24.3173 29.3714 21.0399 29.3333 17.5333C29.3714 14.0267 27.5953 10.7493 24.6367 8.86664H38.6667V26.2Z" fill="#C9F7DA"/>
<path d="M35.1573 0.339952C34.8417 0.182005 34.4764 0.155633 34.1413 0.266618L19.7813 5.07929C19.4316 5.19637 19.2429 5.57484 19.36 5.92462C19.4771 6.2744 19.8556 6.46304 20.2053 6.34595L34.5613 1.53329L36.0347 5.92595C36.1103 6.15222 36.3009 6.32096 36.5346 6.3686C36.7684 6.41625 37.0098 6.33556 37.168 6.15694C37.3261 5.97831 37.377 5.72889 37.3013 5.50262L35.8273 1.11262C35.7175 0.775153 35.4758 0.496462 35.1573 0.339952Z" fill="#C9F7DA"/>
<path d="M19.7947 28.7213L5.43867 33.5333L3.96533 29.1406C3.84843 28.7909 3.47011 28.6021 3.12033 28.719C2.77055 28.8359 2.58177 29.2142 2.69867 29.564L4.17 33.9526C4.27905 34.2895 4.51942 34.5681 4.83667 34.7253C5.02124 34.8171 5.22453 34.865 5.43067 34.8653C5.57397 34.8655 5.7164 34.843 5.85267 34.7986L20.2127 29.986C20.5624 29.8689 20.7511 29.4904 20.634 29.1406C20.5169 28.7909 20.1384 28.6022 19.7887 28.7193L19.7947 28.7213Z" fill="#C9F7DA"/>
<path d="M22 15.1999C22 15.5681 22.2985 15.8666 22.6667 15.8666C23.0349 15.8666 23.3333 15.5681 23.3333 15.1999C23.269 13.7055 22.1478 12.4697 20.6667 12.2606V12.1999C20.6667 11.8318 20.3682 11.5333 20 11.5333C19.6318 11.5333 19.3333 11.8318 19.3333 12.1999V12.2606C17.8522 12.4697 16.731 13.7055 16.6667 15.1999C16.731 16.6943 17.8522 17.9302 19.3333 18.1393V21.4306C18.5914 21.2623 18.0488 20.6258 18 19.8666C18 19.4984 17.7015 19.1999 17.3333 19.1999C16.9651 19.1999 16.6667 19.4984 16.6667 19.8666C16.731 21.361 17.8522 22.5969 19.3333 22.8059V22.8666C19.3333 23.2348 19.6318 23.5333 20 23.5333C20.3682 23.5333 20.6667 23.2348 20.6667 22.8666V22.8059C22.1478 22.5969 23.269 21.361 23.3333 19.8666C23.269 18.3722 22.1478 17.1364 20.6667 16.9273V13.6359C21.4086 13.8043 21.9512 14.4408 22 15.1999ZM18 15.1999C18.0488 14.4408 18.5914 13.8043 19.3333 13.6359V16.7639C18.5914 16.5956 18.0488 15.9591 18 15.1999ZM22 19.8666C21.9512 20.6258 21.4086 21.2623 20.6667 21.4306V18.3026C21.4086 18.4709 21.9512 19.1074 22 19.8666Z" fill="#C9F7DA"/>
<path d="M34 24.8666H36.6667C37.0349 24.8666 37.3333 24.5681 37.3333 24.1999V21.5333C37.3333 21.1651 37.0349 20.8666 36.6667 20.8666C36.2985 20.8666 36 21.1651 36 21.5333V23.5333H34C33.6318 23.5333 33.3333 23.8317 33.3333 24.1999C33.3333 24.5681 33.6318 24.8666 34 24.8666Z" fill="#C9F7DA"/>
<path d="M3.33333 20.8666C2.96514 20.8666 2.66666 21.1651 2.66666 21.5333V24.1999C2.66666 24.5681 2.96514 24.8666 3.33333 24.8666H6C6.36819 24.8666 6.66666 24.5681 6.66666 24.1999C6.66666 23.8317 6.36819 23.5333 6 23.5333H4V21.5333C4 21.1651 3.70152 20.8666 3.33333 20.8666Z" fill="#C9F7DA"/>
<path d="M6 10.2H3.33333C2.96514 10.2 2.66666 10.4984 2.66666 10.8666V13.5333C2.66666 13.9015 2.96514 14.2 3.33333 14.2C3.70152 14.2 4 13.9015 4 13.5333V11.5333H6C6.36819 11.5333 6.66666 11.2348 6.66666 10.8666C6.66666 10.4984 6.36819 10.2 6 10.2Z" fill="#C9F7DA"/>
<path d="M34 11.5333H36V13.5333C36 13.9015 36.2985 14.2 36.6667 14.2C37.0349 14.2 37.3333 13.9015 37.3333 13.5333V10.8666C37.3333 10.4984 37.0349 10.2 36.6667 10.2H34C33.6318 10.2 33.3333 10.4984 33.3333 10.8666C33.3333 11.2348 33.6318 11.5333 34 11.5333Z" fill="#C9F7DA"/>
</svg>
