<svg width="40" height="38" viewBox="0 0 40 38" fill="none" xmlns="http://www.w3.org/2000/svg">
<path d="M6.66667 16.1807H15.3333C15.702 16.1807 16 15.8821 16 15.5141C16 15.1461 15.702 14.8474 15.3333 14.8474H6.66667C6.298 14.8474 6 15.1461 6 15.5141C6 15.8821 6.298 16.1807 6.66667 16.1807Z" fill="#C9F7DA"/>
<path d="M24 18.8474H6.66667C6.298 18.8474 6 19.1461 6 19.5141C6 19.8821 6.298 20.1807 6.66667 20.1807H24C24.3687 20.1807 24.6667 19.8821 24.6667 19.5141C24.6667 19.1461 24.3687 18.8474 24 18.8474Z" fill="#C9F7DA"/>
<path d="M24 22.8474H6.66667C6.298 22.8474 6 23.1461 6 23.5141C6 23.8821 6.298 24.1807 6.66667 24.1807H24C24.3687 24.1807 24.6667 23.8821 24.6667 23.5141C24.6667 23.1461 24.3687 22.8474 24 22.8474Z" fill="#C9F7DA"/>
<path d="M36.048 0.894079L13.2867 0.847412C11.1067 0.847412 9.33333 2.62075 9.33333 4.80075V8.21675L3.95333 8.22808C1.77333 8.22808 0 10.0014 0 12.1814V26.2754C0 28.4554 1.77333 30.2281 3.95333 30.2281H8V36.8947C8 37.1701 8.16933 37.4174 8.42667 37.5167C8.50467 37.5467 8.586 37.5614 8.66667 37.5614C8.85067 37.5614 9.03133 37.4847 9.16 37.3434L15.6293 30.2267L26.7133 30.1814C28.8933 30.1814 30.6667 28.4081 30.6667 26.2287V26.1534L34.1733 30.0107C34.302 30.1521 34.4827 30.2287 34.6667 30.2287C34.7473 30.2287 34.8287 30.2141 34.9067 30.1841C35.164 30.0847 35.3333 29.8374 35.3333 29.5621V22.8954H36.0467C38.2267 22.8954 40 21.1221 40 18.9427V4.84741C40 2.66808 38.2273 0.894746 36.048 0.894079ZM29.3333 26.2281C29.3333 27.6727 28.158 28.8474 26.7107 28.8474L15.3307 28.8941C15.144 28.8947 14.9653 28.9741 14.84 29.1121L9.33333 35.1701V29.5607C9.33333 29.1927 9.03533 28.8941 8.66667 28.8941H3.95333C2.50867 28.8941 1.33333 27.7187 1.33333 26.2747V12.1807C1.33333 10.7361 2.50867 9.56075 3.95467 9.56075L10 9.54808C10.0007 9.54808 10.0007 9.54808 10.0013 9.54808L26.7133 9.51341C28.158 9.51341 29.3333 10.6887 29.3333 12.1334V26.2281ZM38.6667 18.9414C38.6667 20.3861 37.4913 21.5607 36.0467 21.5607H34.6667C34.298 21.5607 34 21.8594 34 22.2274V27.8367L30.6667 24.1701V12.1341C30.6667 9.95408 28.8933 8.18075 26.712 8.18075L10.6667 8.21341V4.80008C10.6667 3.35541 11.842 2.18008 13.2853 2.18008L36.046 2.22675C36.0467 2.22675 36.0467 2.22675 36.0473 2.22675C37.492 2.22675 38.6673 3.40208 38.6673 4.84675L38.6667 18.9414Z" fill="#C9F7DA"/>
</svg>
