<svg width="40" height="38" viewBox="0 0 40 38" fill="none" xmlns="http://www.w3.org/2000/svg">
<path d="M34 0.998047H6C2.68781 1.00172 0.00367409 3.68586 0 6.99805V25.6647C0.00367409 28.9769 2.68781 31.661 6 31.6647H14.9673L18.312 36.9254C18.6813 37.5 19.3176 37.8475 20.0007 37.8475C20.6838 37.8475 21.32 37.5 21.6893 36.9254L25.0327 31.6647H34C37.3122 31.661 39.9963 28.9769 40 25.6647V6.99805C39.9963 3.68586 37.3122 1.00172 34 0.998047ZM38.6667 25.6647C38.6637 28.2408 36.5761 30.3284 34 30.3314H24.6667C24.4387 30.3313 24.2264 30.4477 24.104 30.64L20.566 36.2047C20.4363 36.3892 20.2249 36.499 19.9993 36.499C19.7738 36.499 19.5624 36.3892 19.4327 36.2047L15.8933 30.638C15.7709 30.4473 15.56 30.3318 15.3333 30.3314H6C3.42389 30.3284 1.33627 28.2408 1.33333 25.6647V6.99805C1.33627 4.42194 3.42389 2.33432 6 2.33138H34C36.5761 2.33432 38.6637 4.42194 38.6667 6.99805V25.6647Z" fill="#949499"/>
<path fill-rule="evenodd" clip-rule="evenodd" d="M6 3.66471C4.15996 3.66692 2.66887 5.15801 2.66666 6.99804C2.66666 7.36623 2.96514 7.66471 3.33333 7.66471C3.70152 7.66471 4 7.36623 4 6.99804C4 5.89348 4.89543 4.99804 6 4.99804C6.36819 4.99804 6.66666 4.69957 6.66666 4.33138C6.66666 3.96319 6.36819 3.66471 6 3.66471Z" fill="#949499"/>
<path fill-rule="evenodd" clip-rule="evenodd" d="M36.6667 24.9981C36.2985 24.9981 36 25.2965 36 25.6647C36 26.7693 35.1046 27.6647 34 27.6647C33.6318 27.6647 33.3333 27.9632 33.3333 28.3314C33.3333 28.6996 33.6318 28.9981 34 28.9981C35.84 28.9959 37.3311 27.5048 37.3333 25.6647C37.3333 25.2965 37.0349 24.9981 36.6667 24.9981Z" fill="#949499"/>
<path d="M33.3333 9.6647C33.3333 8.19194 32.1394 6.99803 30.6667 6.99803H9.33333C7.86057 6.99803 6.66666 8.19194 6.66666 9.6647V22.998C6.66666 24.4708 7.86057 25.6647 9.33333 25.6647H30.6667C32.1394 25.6647 33.3333 24.4708 33.3333 22.998V9.6647ZM32 9.6647V22.998C31.9994 23.1674 31.9664 23.3351 31.9027 23.492L23.3333 16.3314L31.9027 9.1707C31.9664 9.32764 31.9994 9.49533 32 9.6647ZM30.6667 8.33136C30.7145 8.33354 30.7621 8.33844 30.8093 8.34603L20.8133 16.6994C20.3448 17.0984 19.6559 17.0984 19.1873 16.6994L9.19066 8.34603C9.2379 8.33844 9.28553 8.33354 9.33333 8.33136H30.6667ZM8.09733 23.492C8.03363 23.3351 8.00059 23.1674 7.99999 22.998V9.6647C8.00059 9.49533 8.03363 9.32764 8.09733 9.1707L16.6667 16.3314L8.09733 23.492ZM9.33333 24.3314C9.28553 24.3292 9.2379 24.3243 9.19066 24.3167L17.7067 17.198L18.3327 17.7214C19.2932 18.5393 20.7054 18.5393 21.666 17.7214L22.2913 17.1987L30.8093 24.3167C30.7621 24.3243 30.7145 24.3292 30.6667 24.3314H9.33333Z" fill="#949499"/>
</svg>
