<svg width="40" height="40" viewBox="0 0 40 40" fill="none" xmlns="http://www.w3.org/2000/svg">
<path d="M37.9992 7.33288H31.9995C31.6313 7.33288 31.3328 7.63134 31.3328 7.99951C31.3328 8.36769 31.6313 8.66615 31.9995 8.66615H37.9992C38.3981 8.70923 38.6921 9.0591 38.6658 9.45944V12.666H31.9995C31.6313 12.666 31.3328 12.9644 31.3328 13.3326C31.3328 13.7008 31.6313 13.9992 31.9995 13.9992H38.6658V37.8715C38.6975 38.2736 38.4007 38.6267 37.9992 38.6648H2.00083C1.60194 38.6217 1.30794 38.2718 1.33419 37.8715V13.9992H8.00055C8.36872 13.9992 8.66719 13.7008 8.66719 13.3326C8.66719 12.9644 8.36872 12.666 8.00055 12.666H1.33419V9.45944C1.30794 9.0591 1.60194 8.70923 2.00083 8.66615H8.00055C8.36872 8.66615 8.66719 8.36769 8.66719 7.99951C8.66719 7.63134 8.36872 7.33288 8.00055 7.33288H2.00083C0.861911 7.36914 -0.0327397 8.32045 0.00091944 9.45944V37.8715C-0.0327397 39.0105 0.861911 39.9618 2.00083 39.998H37.9992C39.1381 39.9618 40.0327 39.0105 39.9991 37.8715V9.45944C40.0327 8.32045 39.1381 7.36914 37.9992 7.33288Z" fill="#C9F7DA"/>
<path d="M3.33409 11.3327C3.70227 11.3327 4.00073 11.0342 4.00073 10.6661C4.00073 10.2979 3.70227 9.99942 3.33409 9.99942C2.96592 9.99942 2.66746 10.2979 2.66746 10.6661C2.66746 11.0342 2.96592 11.3327 3.33409 11.3327Z" fill="#C9F7DA"/>
<path d="M6.00063 11.3327C6.36881 11.3327 6.66727 11.0342 6.66727 10.6661C6.66727 10.2979 6.36881 9.99942 6.00063 9.99942C5.63246 9.99942 5.334 10.2979 5.334 10.6661C5.334 11.0342 5.63246 11.3327 6.00063 11.3327Z" fill="#C9F7DA"/>
<path d="M36.6659 11.3327C37.0341 11.3327 37.3325 11.0342 37.3325 10.6661C37.3325 10.2979 37.0341 9.99942 36.6659 9.99942H32.6661C32.2979 9.99942 31.9995 10.2979 31.9995 10.6661C31.9995 11.0342 32.2979 11.3327 32.6661 11.3327H36.6659Z" fill="#C9F7DA"/>
<path d="M25.3331 10.666C25.3331 7.72066 22.9454 5.33296 20 5.33296C17.0546 5.33296 14.6669 7.72066 14.6669 10.666C14.6669 13.6114 17.0546 15.9991 20 15.9991C22.944 15.9958 25.3298 13.6101 25.3331 10.666ZM16.0002 10.666C16.0002 8.45701 17.791 6.66623 20 6.66623C22.209 6.66623 23.9998 8.45701 23.9998 10.666C23.9998 12.8751 22.209 14.6659 20 14.6659C17.7919 14.6637 16.0024 12.8742 16.0002 10.666Z" fill="#C9F7DA"/>
<path d="M22.6665 10.666C22.6665 9.19335 21.4727 7.9995 20 7.9995C18.5273 7.9995 17.3335 9.19335 17.3335 10.666C17.3335 12.1387 18.5273 13.3326 20 13.3326C21.4727 13.3326 22.6665 12.1387 22.6665 10.666ZM18.6667 10.666C18.6667 9.9297 19.2637 9.33277 20 9.33277C20.7363 9.33277 21.3333 9.9297 21.3333 10.666C21.3333 11.4024 20.7363 11.9993 20 11.9993C19.2637 11.9993 18.6667 11.4024 18.6667 10.666Z" fill="#C9F7DA"/>
<path d="M12.0004 23.3321C10.8959 23.3321 10.0005 24.2275 10.0005 25.332V27.332H5.33401C4.22949 27.332 3.3341 28.2273 3.3341 29.3319V34.665C3.3341 35.7695 4.22949 36.6649 5.33401 36.6649H16.0002C17.1047 36.6649 18.0001 35.7695 18.0001 34.665V29.3319C18.0001 28.2273 17.1047 27.332 16.0002 27.332H11.3337V25.332C11.3337 24.9639 11.6322 24.6654 12.0004 24.6654H27.9996C28.3678 24.6654 28.6663 24.9639 28.6663 25.332V27.332H23.9998C22.8953 27.332 21.9999 28.2273 21.9999 29.3319V34.665C21.9999 35.7695 22.8953 36.6649 23.9998 36.6649H34.666C35.7705 36.6649 36.6659 35.7695 36.6659 34.665V29.3319C36.6659 28.2273 35.7705 27.332 34.666 27.332H29.9995V25.332C29.9995 24.2275 29.1042 23.3321 27.9996 23.3321H20.6666V21.3322H20.7866C21.4216 21.3307 21.968 20.8832 22.0946 20.2609L22.4946 18.261C22.877 18.1363 23.2494 17.9825 23.6085 17.8011L25.3038 18.9343C25.8326 19.287 26.5369 19.2172 26.9863 18.7677L28.099 17.6551C28.5469 17.2052 28.6166 16.5022 28.2656 15.9731L27.1323 14.2772C27.3133 13.9181 27.467 13.546 27.5923 13.1639L29.5922 12.764C30.2177 12.6399 30.6678 12.0904 30.6662 11.4527V9.87942C30.6662 9.24408 30.2179 8.697 29.5949 8.57215L27.595 8.17217C27.4697 7.7901 27.3159 7.41797 27.135 7.05889L28.2683 5.3623C28.6184 4.83315 28.5485 4.1308 28.101 3.68104L26.9857 2.56776C26.5353 2.12019 25.8325 2.05058 25.3031 2.4011L23.6078 3.53305C23.2488 3.35161 22.8764 3.19783 22.4939 3.07307L22.0939 1.07316C21.9682 0.450399 21.4219 0.00188657 20.7866 -0.00012207H19.2134C18.5784 0.00137649 18.032 0.448949 17.9054 1.07116L17.5055 3.07107C17.123 3.19583 16.7506 3.34961 16.3915 3.53105L14.6969 2.39977C14.1676 2.04898 13.4646 2.11861 13.0143 2.56643L11.9017 3.68038C11.4537 4.13028 11.3841 4.83323 11.735 5.3623L12.8683 7.05822C12.6874 7.4173 12.5336 7.78944 12.4084 8.1715L10.4084 8.57148C9.78391 8.69499 9.33383 9.2428 9.33383 9.87942V11.4527C9.33383 12.088 9.78215 12.6351 10.4051 12.76L12.405 13.1599C12.5303 13.542 12.6841 13.9141 12.865 14.2732L11.7317 15.9698C11.3816 16.499 11.4515 17.2013 11.899 17.6511L13.011 18.763C13.4611 19.2116 14.1647 19.2816 14.6942 18.9303L16.3895 17.7971C16.7486 17.9785 17.121 18.1323 17.5035 18.257L17.9034 20.2569C18.0285 20.8815 18.5764 21.3313 19.2134 21.3322H19.3334V23.3321H12.0004ZM16.6668 29.3319V34.665C16.6668 35.0331 16.3684 35.3316 16.0002 35.3316H5.33401C4.96584 35.3316 4.66737 35.0331 4.66737 34.665V29.3319C4.66737 28.9637 4.96584 28.6652 5.33401 28.6652H16.0002C16.3684 28.6652 16.6668 28.9637 16.6668 29.3319ZM35.3326 29.3319V34.665C35.3326 35.0331 35.0342 35.3316 34.666 35.3316H23.9998C23.6316 35.3316 23.3332 35.0331 23.3332 34.665V29.3319C23.3332 28.9637 23.6316 28.6652 23.9998 28.6652H34.666C35.0342 28.6652 35.3326 28.9637 35.3326 29.3319ZM19.2127 19.999L18.7334 17.6057C18.6838 17.3578 18.4982 17.1592 18.2541 17.0931C17.7057 16.9455 17.1787 16.7277 16.6862 16.4451C16.4668 16.3195 16.1952 16.3288 15.9849 16.4691L13.9556 17.8217L12.843 16.7091L14.2003 14.6799C14.3407 14.4693 14.3497 14.1973 14.2236 13.9779C13.9415 13.4854 13.7237 12.9586 13.5756 12.4106C13.5096 12.1668 13.3114 11.9812 13.0637 11.9313L10.6671 11.4527V9.87942L13.0603 9.40078C13.308 9.35094 13.5063 9.16535 13.5723 8.92147C13.7204 8.37348 13.9381 7.84676 14.2203 7.35421C14.3474 7.13539 14.3396 6.86347 14.2003 6.65224L12.8443 4.623L13.9576 3.51038L15.9862 4.86632C16.1965 5.00666 16.4681 5.01596 16.6875 4.89032C17.1801 4.60773 17.7071 4.38994 18.2554 4.24235C18.4999 4.17524 18.6851 3.97526 18.7334 3.72637L19.2134 1.33315H20.7873L21.2666 3.72637C21.3162 3.97433 21.5019 4.17287 21.7459 4.23902C22.2943 4.38661 22.8213 4.6044 23.3139 4.88699C23.5323 5.01307 23.8032 5.00507 24.0138 4.86632L26.0431 3.51372L27.1557 4.62633L25.8031 6.65224C25.6627 6.86283 25.6536 7.13476 25.7797 7.35421C26.0619 7.84676 26.2796 8.37348 26.4277 8.92147C26.4937 9.16535 26.692 9.35094 26.9397 9.40078L29.3329 9.87942V11.4527L26.9397 11.9313C26.692 11.9812 26.4937 12.1668 26.4277 12.4106C26.2796 12.9586 26.0619 13.4854 25.7797 13.9779C25.6536 14.1973 25.6627 14.4693 25.8031 14.6799L27.1557 16.7091L26.0424 17.8217L24.0138 16.4691C23.8035 16.3288 23.5319 16.3195 23.3125 16.4451C22.82 16.7277 22.2929 16.9455 21.7446 17.0931C21.5005 17.1592 21.3149 17.3578 21.2653 17.6057L20.7866 19.999H19.2127Z" fill="#C9F7DA"/>
<path d="M8.00055 29.9985C6.89603 29.9985 6.00064 30.8939 6.00064 31.9984C6.00064 33.1029 6.89603 33.9983 8.00055 33.9983C9.10507 33.9983 10.0005 33.1029 10.0005 31.9984C10.0005 30.8939 9.10507 29.9985 8.00055 29.9985ZM8.00055 32.665C7.63238 32.665 7.33392 32.3666 7.33392 31.9984C7.33392 31.6302 7.63238 31.3318 8.00055 31.3318C8.36872 31.3318 8.66719 31.6302 8.66719 31.9984C8.66719 32.3666 8.36872 32.665 8.00055 32.665Z" fill="#C9F7DA"/>
<path d="M13.3336 33.9983C14.4382 33.9983 15.3335 33.1029 15.3335 31.9984C15.3335 30.8939 14.4382 29.9985 13.3336 29.9985C12.2291 29.9985 11.3337 30.8939 11.3337 31.9984C11.3337 33.1029 12.2291 33.9983 13.3336 33.9983ZM13.3336 31.3318C13.7018 31.3318 14.0003 31.6302 14.0003 31.9984C14.0003 32.3666 13.7018 32.665 13.3336 32.665C12.9655 32.665 12.667 32.3666 12.667 31.9984C12.667 31.6302 12.9655 31.3318 13.3336 31.3318Z" fill="#C9F7DA"/>
<path d="M26.6664 29.9985C25.5618 29.9985 24.6665 30.8939 24.6665 31.9984C24.6665 33.1029 25.5618 33.9983 26.6664 33.9983C27.7709 33.9983 28.6663 33.1029 28.6663 31.9984C28.6663 30.8939 27.7709 29.9985 26.6664 29.9985ZM26.6664 32.665C26.2982 32.665 25.9997 32.3666 25.9997 31.9984C25.9997 31.6302 26.2982 31.3318 26.6664 31.3318C27.0345 31.3318 27.333 31.6302 27.333 31.9984C27.333 32.3666 27.0345 32.665 26.6664 32.665Z" fill="#C9F7DA"/>
<path d="M31.9994 33.9983C33.104 33.9983 33.9994 33.1029 33.9994 31.9984C33.9994 30.8939 33.104 29.9985 31.9994 29.9985C30.8949 29.9985 29.9995 30.8939 29.9995 31.9984C29.9995 33.1029 30.8949 33.9983 31.9994 33.9983ZM31.9994 31.3318C32.3676 31.3318 32.6661 31.6302 32.6661 31.9984C32.6661 32.3666 32.3676 32.665 31.9994 32.665C31.6313 32.665 31.3328 32.3666 31.3328 31.9984C31.3328 31.6302 31.6313 31.3318 31.9994 31.3318Z" fill="#C9F7DA"/>
</svg>
