<svg width="40" height="40" viewBox="0 0 40 40" fill="none" xmlns="http://www.w3.org/2000/svg">
<path d="M36.6666 0H3.33335C1.49328 0.0021875 0.0021875 1.49328 0 3.33335V36.6666C0.0021875 38.5066 1.49328 39.9977 3.33335 39.9999H36.6666C38.5066 39.9977 39.9977 38.5066 40 36.6666V3.33335C39.9977 1.49328 38.5066 0.0021875 36.6666 0ZM38.6666 36.6666C38.6666 37.7711 37.7712 38.6666 36.6666 38.6666H3.33335C2.22882 38.6666 1.33336 37.7712 1.33336 36.6666V6.66663H38.6666L38.6666 36.6666ZM38.6666 5.33335H1.33336V3.33335C1.33336 2.22882 2.22882 1.33336 3.33335 1.33336H36.6666C37.7712 1.33336 38.6666 2.22882 38.6666 3.33335L38.6666 5.33335Z" fill="#C9F7DA"/>
<path d="M4.66663 2.66662H3.99999C3.63179 2.66662 3.33335 2.96506 3.33335 3.33326C3.33335 3.70146 3.63179 3.99998 3.99999 3.99998H4.66663C5.03483 3.99998 5.33327 3.70154 5.33327 3.33334C5.33327 2.96514 5.03483 2.66662 4.66663 2.66662Z" fill="#C9F7DA"/>
<path d="M7.58663 2.72C7.42569 2.64664 7.24085 2.64664 7.07999 2.72C6.99921 2.75383 6.92483 2.80117 6.85999 2.86C6.60218 3.12289 6.60218 3.54375 6.85999 3.80664C6.92483 3.86547 6.99921 3.91281 7.07999 3.94664C7.24139 4.01773 7.42522 4.01773 7.58663 3.94664C7.66741 3.91281 7.74178 3.86547 7.80663 3.80664C8.06444 3.54375 8.06444 3.12289 7.80663 2.86C7.74178 2.80117 7.66741 2.75383 7.58663 2.72Z" fill="#C9F7DA"/>
<path d="M10.2556 2.71374C10.0054 2.60992 9.71732 2.66765 9.52662 2.85999C9.46779 2.92484 9.42045 2.99921 9.38662 3.07999C9.31545 3.2414 9.31545 3.42523 9.38662 3.58663C9.42045 3.66741 9.46779 3.74179 9.52662 3.80663C9.78951 4.06444 10.2104 4.06444 10.4733 3.80663C10.5321 3.74179 10.5794 3.66741 10.6133 3.58663C10.6506 3.50749 10.6689 3.42077 10.6666 3.33327C10.6683 3.06249 10.5058 2.81757 10.2556 2.71374Z" fill="#C9F7DA"/>
<path d="M35.9999 2.66662H13.3333C12.9651 2.66662 12.6667 2.96506 12.6667 3.33326C12.6667 3.70146 12.9651 3.9999 13.3333 3.9999H35.9999C36.3681 3.9999 36.6666 3.70146 36.6666 3.33326C36.6666 2.96506 36.3681 2.66662 35.9999 2.66662Z" fill="#C9F7DA"/>
<path d="M10.2353 31.7466C10.2656 31.7745 10.2987 31.7993 10.334 31.8206C12.8434 34.4885 16.3439 36.001 20.0066 35.9998C23.6693 35.9987 27.1688 34.4841 29.6766 31.8145C29.7097 31.7952 29.741 31.7729 29.7699 31.7479C29.7918 31.7172 29.811 31.6846 29.8273 31.6506C34.5056 26.5758 34.5056 18.76 29.8273 13.6853L29.8246 13.684C29.8084 13.6499 29.7892 13.6173 29.7673 13.5866C29.7369 13.5583 29.7036 13.5333 29.668 13.5119C27.1596 10.8461 23.6618 9.33458 20.0014 9.33458C16.341 9.33458 12.8431 10.8461 10.3347 13.5119C10.2991 13.5332 10.2658 13.5583 10.2355 13.5866C10.2136 13.6173 10.1944 13.6499 10.1781 13.684C5.49984 18.7587 5.49984 26.5745 10.1781 31.6492C10.1943 31.6833 10.2134 31.7159 10.2353 31.7466ZM23.6366 34.0979C24.6614 32.8603 25.4327 31.4332 25.9066 29.8979V29.8959C26.7441 30.2882 27.5342 30.7744 28.2619 31.3452C26.9485 32.6012 25.3669 33.5424 23.6366 34.0979ZM29.182 30.3766C28.2948 29.6649 27.3213 29.0679 26.2846 28.5999C26.7134 26.876 26.9475 25.1094 26.9826 23.3333H31.966C31.8274 25.921 30.8501 28.3934 29.182 30.3766ZM31.966 22H26.9826C26.9475 20.2239 26.7133 18.4572 26.2846 16.7333C27.3212 16.2657 28.2947 15.6693 29.182 14.958C30.8499 16.9408 31.8271 19.4126 31.966 22ZM28.262 13.986C27.5343 14.5568 26.7442 15.043 25.9067 15.4353C25.433 13.8993 24.6617 12.4715 23.6367 11.2333C25.3669 11.7888 26.9485 12.73 28.262 13.986ZM20.6666 10.76C22.3006 11.1879 23.7459 13.1526 24.6566 15.9339C23.37 16.3775 22.0262 16.6332 20.6666 16.6932V10.76ZM20.6666 18.0273C22.15 17.9718 23.6176 17.7024 25.0239 17.2273C25.4021 18.7913 25.612 20.3913 25.65 22H20.6666V18.0273ZM20.6666 23.3333H25.65C25.6119 24.9415 25.4021 26.541 25.0239 28.1046C23.6175 27.63 22.15 27.361 20.6666 27.306V23.3333ZM20.6666 28.6399C22.0262 28.7002 23.37 28.9561 24.6566 29.3999C23.7459 32.1813 22.3006 34.1459 20.6666 34.5739V28.6399ZM11.7379 31.3433C12.4658 30.7739 13.256 30.289 14.0933 29.898V29.896C14.5672 31.4313 15.3385 32.8584 16.3633 34.0959C14.633 33.5405 13.0515 32.5992 11.7379 31.3433ZM19.3333 34.5733C17.6993 34.1453 16.254 32.1806 15.3433 29.3993C16.6299 28.9557 17.9737 28.7 19.3333 28.64V34.5733ZM19.3333 27.306C17.85 27.3615 16.3824 27.6309 14.976 28.106C14.5978 26.5419 14.3879 24.942 14.35 23.3333H19.3333V27.306ZM19.3333 22H14.35C14.388 20.3918 14.5979 18.7922 14.976 17.2286C16.3824 17.7032 17.85 17.9722 19.3333 18.0273V22ZM19.3333 10.7593V16.6932C17.9737 16.633 16.6299 16.3771 15.3433 15.9332C16.254 13.152 17.6993 11.1873 19.3333 10.7593ZM16.3633 11.2313C15.3381 12.47 14.5668 13.8986 14.0933 15.4353V15.4332C13.2558 15.0409 12.4657 14.5547 11.738 13.9839C13.0515 12.728 14.633 11.7868 16.3633 11.2313ZM10.818 14.9566C11.7051 15.6683 12.6786 16.2653 13.7153 16.7332C13.2865 18.4572 13.0524 20.2238 13.0173 21.9999H8.03397C8.17256 19.4121 9.14983 16.9398 10.818 14.9566ZM13.0173 23.3333C13.0525 25.1094 13.2866 26.876 13.7153 28.5999C12.6787 29.0675 11.7052 29.664 10.818 30.3752C9.15006 28.3924 8.17288 25.9206 8.03397 23.3332H13.0173V23.3333Z" fill="#C9F7DA"/>
</svg>
