<svg width="40" height="38" viewBox="0 0 40 38" fill="none" xmlns="http://www.w3.org/2000/svg">
<path d="M33.6637 23.8611H8.66591C3.87986 23.8611 0 19.9812 0 15.1952C0 10.4091 3.87986 6.52927 8.66591 6.52927C8.72257 6.52927 8.77883 6.52961 8.83449 6.53087C10.4242 2.8861 14.0225 0.529785 17.9989 0.529785C21.9752 0.529785 25.5736 2.8861 27.1633 6.53087C30.181 6.59892 32.8788 8.42891 34.0579 11.2076C37.4734 11.4187 40.1034 14.3051 39.9969 17.7255C39.8903 21.1459 37.0858 23.863 33.6637 23.8611ZM8.66591 7.86249C4.61617 7.86249 1.33322 11.1454 1.33322 15.1952C1.33322 19.2449 4.61617 22.5279 8.66591 22.5279H33.6637C36.4249 22.5279 38.6633 20.2895 38.6633 17.5283C38.6633 14.7671 36.4249 12.5287 33.6637 12.5287H33.5971C33.3145 12.5287 33.0626 12.3506 32.9685 12.0841C32.0711 9.53894 29.6576 7.84352 26.9589 7.86249C26.8938 7.86249 26.829 7.86282 26.7643 7.86736C26.4718 7.88596 26.201 7.71309 26.0947 7.43999C24.8128 4.07839 21.5869 1.85873 17.9891 1.86279C14.3914 1.86684 11.1705 4.09377 9.89613 7.45826C9.7898 7.74101 9.50632 7.91664 9.20579 7.88595C9.02634 7.86907 8.84615 7.86124 8.66591 7.86249Z" fill="#949499"/>
<path d="M4.51327 19.1948C4.31205 19.1952 4.12151 19.1044 3.99511 18.9478C2.84025 17.5182 2.40657 15.6371 2.81897 13.8462C3.23137 12.0553 4.44407 10.5533 6.10786 9.7728C6.44079 9.6155 6.83819 9.75788 6.99548 10.0908C7.15278 10.4237 7.0104 10.8211 6.67748 10.9784C5.0477 11.7515 4.00631 13.3914 3.99965 15.1952C3.99555 16.2565 4.36003 17.2863 5.03082 18.1087C5.19251 18.3083 5.2251 18.5831 5.1146 18.815C5.00409 19.0469 4.77016 19.1947 4.51327 19.1948Z" fill="#949499"/>
<path d="M11.3323 19.8618C11.1181 19.8615 10.917 19.7583 10.7918 19.5845C10.6665 19.4106 10.6324 19.1872 10.6999 18.9839L13.3664 10.9846C13.4828 10.6353 13.8604 10.4466 14.2097 10.5631C14.559 10.6796 14.7477 11.0572 14.6312 11.4064L11.9647 19.4057C11.8741 19.678 11.6193 19.8617 11.3323 19.8618Z" fill="#949499"/>
<path d="M16.6652 19.8618C16.3782 19.8617 16.1235 19.678 16.0328 19.4057L13.3664 11.4064C13.2499 11.0572 13.4386 10.6796 13.7879 10.5631C14.1371 10.4466 14.5147 10.6353 14.6312 10.9846L17.2976 18.9839C17.3652 19.1872 17.331 19.4106 17.2058 19.5845C17.0805 19.7583 16.8795 19.8615 16.6652 19.8618Z" fill="#949499"/>
<path d="M15.552 16.5284H12.4456C12.0774 16.5284 11.779 16.2299 11.779 15.8618C11.779 15.4936 12.0774 15.1952 12.4456 15.1952H15.552C15.9201 15.1952 16.2186 15.4936 16.2186 15.8618C16.2186 16.2299 15.9201 16.5284 15.552 16.5284Z" fill="#949499"/>
<path d="M18.665 19.8614C18.2969 19.8614 17.9984 19.563 17.9984 19.1948V11.1955C17.9984 10.8274 18.2969 10.5289 18.665 10.5289C19.0332 10.5289 19.3316 10.8274 19.3316 11.1955V19.1948C19.3316 19.563 19.0332 19.8614 18.665 19.8614Z" fill="#949499"/>
<path d="M21.3315 15.8618H18.665C18.2969 15.8618 17.9984 15.5633 17.9984 15.1952V11.1955C17.9984 10.8274 18.2969 10.5289 18.665 10.5289H21.3315C22.8041 10.5289 23.9979 11.7227 23.9979 13.1953C23.9979 14.668 22.8041 15.8618 21.3315 15.8618ZM19.3316 14.5286H21.3315C22.0678 14.5286 22.6647 13.9317 22.6647 13.1953C22.6647 12.459 22.0678 11.8621 21.3315 11.8621H19.3316V14.5286Z" fill="#949499"/>
<path d="M26.6643 19.8614C26.2962 19.8614 25.9977 19.563 25.9977 19.1948V11.1955C25.9977 10.8274 26.2962 10.5289 26.6643 10.5289C27.0325 10.5289 27.3309 10.8274 27.3309 11.1955V19.1948C27.3309 19.563 27.0325 19.8614 26.6643 19.8614Z" fill="#949499"/>
<path d="M28.6642 11.8621H24.6645C24.2963 11.8621 23.9979 11.5637 23.9979 11.1955C23.9979 10.8274 24.2963 10.5289 24.6645 10.5289H28.6642C29.0323 10.5289 29.3308 10.8274 29.3308 11.1955C29.3308 11.5637 29.0323 11.8621 28.6642 11.8621Z" fill="#949499"/>
<path d="M28.6642 19.8615H24.6645C24.2963 19.8615 23.9979 19.563 23.9979 19.1948C23.9979 18.8267 24.2963 18.5282 24.6645 18.5282H28.6642C29.0323 18.5282 29.3308 18.8267 29.3308 19.1948C29.3308 19.563 29.0323 19.8615 28.6642 19.8615Z" fill="#949499"/>
<path d="M16.0295 37.1936C15.8614 37.1934 15.6951 37.1587 15.541 37.0917L11.3704 35.3627C11.063 35.2357 10.8194 34.9908 10.6941 34.6827C10.5703 34.3787 10.5757 34.0374 10.709 33.7375L11.7022 31.3364C10.7248 30.593 9.85268 29.7205 9.10968 28.7428L6.68702 29.7434C6.38525 29.8695 6.04544 29.8689 5.74411 29.7418C5.44294 29.6175 5.20326 29.379 5.0775 29.0784L3.35031 24.8883C3.08866 24.2669 3.37741 23.5508 3.99692 23.2847L6.35905 22.3111C6.57935 22.2204 6.83129 22.2541 7.01999 22.3995C7.20869 22.545 7.30547 22.78 7.27387 23.0161C7.24227 23.2523 7.0871 23.4536 6.86681 23.5443L4.6196 24.4698L6.27046 28.473L9.08434 27.311C9.37274 27.1922 9.70495 27.2891 9.88427 27.5443C10.706 28.7181 11.727 29.7389 12.9009 30.5605C13.1571 30.7396 13.2543 31.0728 13.1346 31.3616L11.9732 34.1693L15.9735 35.8276L17.1359 33.0183C17.2555 32.7291 17.5601 32.562 17.8682 32.6166C19.2767 32.8676 20.7186 32.8656 22.1263 32.6108C22.4346 32.5558 22.7397 32.7222 22.8603 33.0111L24.0288 35.8253L28.0236 34.1689L26.8616 31.3544C26.7421 31.0647 26.8404 30.7309 27.0979 30.5524C28.2722 29.7349 29.2927 28.7163 30.1123 27.5435C30.2915 27.2881 30.6241 27.1915 30.9122 27.3111L33.7253 28.4751L35.3852 24.4725L33.7805 23.8046C33.4794 23.6919 33.3018 23.3803 33.3582 23.0638C33.4146 22.7473 33.6889 22.5163 34.0104 22.5145C34.1004 22.5145 34.1896 22.5318 34.2731 22.5656L35.9863 23.2789C36.2911 23.4034 36.5326 23.6459 36.6558 23.9513C36.7792 24.2535 36.7784 24.5921 36.6535 24.8936L34.9193 29.0759C34.7942 29.3817 34.5513 29.6243 34.2453 29.7491C33.9394 29.8739 33.5961 29.8703 33.2928 29.7392L30.8863 28.7432C30.1446 29.7203 29.2727 30.5912 28.2947 31.3318L29.294 33.7526C29.4225 34.0487 29.4255 34.3843 29.3024 34.6828C29.1769 34.9917 28.9323 35.2371 28.6238 35.3637L24.4468 37.0957C24.1443 37.2224 23.8036 37.2228 23.5008 37.0969C23.1979 36.9709 22.9581 36.7291 22.8346 36.4252L21.8311 34.0081C20.6158 34.1776 19.3831 34.1793 18.1673 34.0133L17.1681 36.4281C16.9787 36.8902 16.5293 37.1925 16.0299 37.1936L16.0295 37.1936Z" fill="#949499"/>
<path d="M19.9982 29.8606C15.8599 29.8441 12.1546 27.2927 10.6631 23.4324C10.5756 23.2094 10.6145 22.9565 10.765 22.7701C10.9155 22.5837 11.1545 22.4925 11.3909 22.531C11.6274 22.5695 11.825 22.732 11.9085 22.9566C13.1892 26.3112 16.4074 28.5274 19.9982 28.5274C23.5891 28.5274 26.8073 26.3112 28.088 22.9566C28.1715 22.732 28.3691 22.5695 28.6055 22.531C28.842 22.4925 29.0809 22.5837 29.2314 22.7701C29.382 22.9565 29.4209 23.2094 29.3334 23.4324C27.8419 27.2927 24.1366 29.8441 19.9982 29.8606Z" fill="#949499"/>
<path d="M12.6656 8.52942C12.4513 8.52911 12.2502 8.42597 12.125 8.25212C11.9997 8.07828 11.9656 7.85489 12.0331 7.65156C13.5014 3.24701 17.1762 3.19622 17.3318 3.19622C17.7 3.19532 17.9992 3.49304 18.0001 3.86119C18.001 4.22935 17.7032 4.52853 17.3351 4.52943C17.2058 4.53137 14.4509 4.61436 13.298 8.07339C13.2073 8.34569 12.9525 8.52939 12.6656 8.52942Z" fill="#949499"/>
</svg>
