<svg width="21" height="20" viewBox="0 0 21 20" fill="none" xmlns="http://www.w3.org/2000/svg">
<path d="M12.0392 11.5372C10.0598 13.5149 7.76657 15.4076 6.86003 14.5012C5.56337 13.2048 4.76312 12.0747 1.90222 14.3737C-0.957438 16.6715 1.23951 18.2042 2.49615 19.4593C3.94661 20.9095 9.35332 19.5368 14.6975 14.195C20.0404 8.85184 21.4096 3.44623 19.9579 1.99606C18.7013 0.738417 17.1758 -1.45683 14.8776 1.40224C12.5781 4.26132 13.7072 5.06141 15.0064 6.35906C15.9091 7.26541 14.0173 9.55818 12.0392 11.5372Z" fill="url(#paint0_linear_1385_171)"/>
<path d="M12.0392 11.5372C10.0598 13.5149 7.76657 15.4076 6.86003 14.5012C5.56337 13.2048 4.76312 12.0747 1.90222 14.3737C-0.957438 16.6715 1.23951 18.2042 2.49615 19.4593C3.94661 20.9095 9.35332 19.5368 14.6975 14.195C20.0404 8.85184 21.4096 3.44623 19.9579 1.99606C18.7013 0.738417 17.1758 -1.45683 14.8776 1.40224C12.5781 4.26132 13.7072 5.06141 15.0064 6.35906C15.9091 7.26541 14.0173 9.55818 12.0392 11.5372Z" fill="#F2F2FA" fill-opacity="0.5"/>
<defs>
<linearGradient id="paint0_linear_1385_171" x1="1.34507" y1="-2.48276" x2="22.5444" y2="-0.647322" gradientUnits="userSpaceOnUse">
<stop stop-color="#A4FFB8"/>
<stop offset="1" stop-color="#46A6FF"/>
</linearGradient>
</defs>
</svg>
