<svg width="157" height="80" viewBox="0 0 157 80" fill="none" xmlns="http://www.w3.org/2000/svg">
<path d="M82.583 8.42126L80.9058 19.7193L79.7393 19.7777L80.5044 14.5809L73.5051 14.9313L72.7401 20.1281L71.5735 20.1865L73.2507 8.88851L74.4172 8.83011L73.6753 13.8495L80.6745 13.499L81.4164 8.47967L82.583 8.42126ZM92.7622 10.6991L87.1012 20.4984C86.6293 21.3124 86.1771 21.8797 85.7446 22.2004C85.3126 22.5317 84.7877 22.7129 84.1698 22.7438C83.765 22.7641 83.378 22.7141 83.0088 22.5937C82.6402 22.484 82.3488 22.317 82.1347 22.0928L82.7003 21.2314C83.1041 21.617 83.6096 21.7947 84.2169 21.7642C84.5897 21.7456 84.9202 21.6276 85.2084 21.4102C85.4966 21.1929 85.7879 20.8258 86.0824 20.3091L86.6289 19.3847L84.1171 11.1319L85.2676 11.0743L87.3679 18.1462L91.5957 10.7575L92.7622 10.6991ZM101.75 14.4303L104.151 18.5554L102.824 18.6218L100.782 14.9434L98.9763 15.0338L98.398 18.8435L97.2635 18.9003L97.8257 15.0914L96.0519 15.1802L92.9169 19.1179L91.4947 19.1891L95.1914 14.6305L93.0234 10.686L94.2219 10.626L96.1493 14.2462L97.9711 14.1549L98.5205 10.4108L99.6711 10.3532L99.1056 14.0981L100.895 14.0085L103.938 10.1396L105.216 10.0755L101.75 14.4303ZM107.312 9.97061L108.446 9.91381L107.898 13.6739L113.171 13.4099L113.736 9.64898L114.87 9.59217L113.613 18.0816L112.479 18.1385L113.028 14.3943L107.755 14.6583L107.189 18.4033L106.055 18.4601L107.312 9.97061ZM125.878 9.04104L124.621 17.5305L123.534 17.5849L123.739 16.245C123.357 16.7127 122.895 17.0829 122.353 17.3557C121.812 17.6285 121.205 17.7816 120.534 17.8152C119.82 17.851 119.179 17.7389 118.611 17.479C118.042 17.2191 117.59 16.8305 117.255 16.3133C116.919 15.7855 116.732 15.1594 116.696 14.4349C116.649 13.4868 116.808 12.6244 117.175 11.8477C117.553 11.0705 118.093 10.4507 118.796 9.98834C119.499 9.51529 120.298 9.25636 121.193 9.21155C121.992 9.17155 122.671 9.29774 123.23 9.59014C123.789 9.87188 124.205 10.2996 124.48 10.8733L124.743 9.09785L125.878 9.04104ZM120.723 16.7965C121.416 16.7618 122.031 16.5655 122.568 16.2075C123.105 15.8389 123.513 15.3485 123.792 14.7365C124.081 14.1132 124.207 13.4287 124.17 12.683C124.129 11.8627 123.852 11.2358 123.339 10.8022C122.836 10.3575 122.148 10.157 121.274 10.2007C120.582 10.2354 119.967 10.437 119.43 10.8057C118.893 11.1743 118.48 11.6703 118.191 12.2935C117.912 12.9056 117.791 13.5845 117.828 14.3302C117.869 15.1505 118.141 15.7777 118.643 16.2118C119.156 16.6453 119.85 16.8402 120.723 16.7965ZM81.0856 31.3088L79.8285 39.7983L78.694 39.8551L79.7777 32.3835L74.5043 32.6475L73.4206 40.1191L72.286 40.1759L73.543 31.6864L81.0856 31.3088ZM86.8933 39.5246C86.1263 39.563 85.4479 39.4528 84.8582 39.194C84.268 38.9245 83.7998 38.5314 83.4535 38.0148C83.1174 37.4869 82.9314 36.8661 82.8957 36.1523C82.8482 35.2042 83.0133 34.3415 83.3909 33.5643C83.7685 32.7871 84.3142 32.1671 85.0279 31.7041C85.7518 31.23 86.5771 30.9697 87.504 30.9233C88.6758 30.8647 89.6187 31.1379 90.3325 31.7429C91.057 32.3474 91.4464 33.193 91.5008 34.2797C91.5483 35.2278 91.3835 36.0958 91.0064 36.8836C90.6288 37.6608 90.0781 38.2865 89.3542 38.7606C88.6405 39.2236 87.8202 39.4782 86.8933 39.5246ZM86.9228 38.5139C87.6153 38.4792 88.2302 38.2829 88.7677 37.9249C89.3046 37.5563 89.7126 37.0659 89.9916 36.4539C90.2808 35.8306 90.4068 35.1461 90.3694 34.4004C90.3284 33.5801 90.0513 32.9532 89.5383 32.5196C89.0355 32.0749 88.3473 31.8744 87.4737 31.9181C86.7812 31.9528 86.1665 32.1544 85.6296 32.5231C85.0927 32.8917 84.6797 33.3876 84.3905 34.0109C84.1114 34.6229 83.9905 35.3018 84.0279 36.0476C84.0689 36.8679 84.3406 37.4951 84.843 37.9292C85.356 38.3627 86.0492 38.5576 86.9228 38.5139ZM103.975 30.1627L102.718 38.6522L101.68 38.7042L102.673 31.9901L98.4325 37.8415L97.9211 37.8671L95.3671 32.2918L94.3608 39.0706L93.3221 39.1226L94.5792 30.6332L95.7138 30.5764L98.3661 36.5152L102.905 30.2163L103.975 30.1627ZM109.787 38.3784C109.019 38.4168 108.341 38.3066 107.751 38.0478C107.161 37.7783 106.693 37.3852 106.347 36.8685C106.011 36.3407 105.825 35.7199 105.789 35.0061C105.741 34.0579 105.906 33.1953 106.284 32.4181C106.662 31.6409 107.207 31.0208 107.921 30.5579C108.645 30.0838 109.47 29.8235 110.397 29.7771C111.569 29.7184 112.512 29.9916 113.226 30.5967C113.95 31.2012 114.34 32.0468 114.394 33.1334C114.441 34.0816 114.277 34.9496 113.9 35.7374C113.522 36.5146 112.971 37.1403 112.247 37.6144C111.534 38.0773 110.713 38.332 109.787 38.3784ZM109.816 37.3677C110.508 37.333 111.123 37.1367 111.661 36.7787C112.198 36.41 112.606 35.9197 112.885 35.3076C113.174 34.6844 113.3 33.9999 113.263 33.2542C113.222 32.4339 112.945 31.8069 112.432 31.3734C111.929 30.9286 111.24 30.7281 110.367 30.7719C109.674 30.8065 109.06 31.0082 108.523 31.3768C107.986 31.7455 107.573 32.2414 107.284 32.8647C107.005 33.4767 106.884 34.1556 106.921 34.9013C106.962 35.7217 107.234 36.3488 107.736 36.7829C108.249 37.2165 108.942 37.4114 109.816 37.3677ZM129.09 28.9053L127.817 37.3956L116.215 37.9764L117.472 29.4869L118.607 29.4301L117.524 36.9177L121.631 36.712L122.73 29.2237L123.864 29.1669L122.765 36.6552L126.856 36.4504L127.955 28.9621L129.09 28.9053ZM129.253 36.3304L128.82 39.1877L127.749 39.2413L128.025 37.3852L126.618 37.4556L126.776 36.4544L129.253 36.3304ZM135.666 31.5397C137.552 31.4453 138.532 32.1491 138.608 33.6513C138.64 34.2905 138.503 34.8634 138.197 35.3699C137.902 35.8654 137.462 36.2612 136.879 36.5574C136.306 36.8424 135.63 37.0043 134.853 37.0433L131.337 37.2193L132.596 28.7618L133.73 28.705L133.301 31.6581L135.666 31.5397ZM134.809 36.1804C135.64 36.1388 136.301 35.9027 136.792 35.4723C137.283 35.0312 137.512 34.4751 137.478 33.804C137.453 33.3032 137.264 32.9389 136.911 32.711C136.567 32.4718 136.055 32.3693 135.373 32.4034L133.168 32.5139L132.62 36.29L134.809 36.1804ZM142.3 33.3062C142.363 32.8652 142.493 32.4742 142.689 32.1333C142.885 31.7817 143.106 31.4876 143.35 31.2511C143.605 31.0034 143.932 30.7147 144.332 30.3849C144.722 30.077 145.024 29.8163 145.238 29.6026C145.462 29.3885 145.642 29.1339 145.777 28.8388C145.922 28.5431 145.985 28.2089 145.967 27.836C145.94 27.314 145.723 26.919 145.315 26.6511C144.917 26.3827 144.35 26.2669 143.615 26.3037C142.912 26.3389 142.299 26.4764 141.777 26.7161C141.266 26.9553 140.819 27.3034 140.436 27.7605L139.65 27.1109C140.093 26.5655 140.654 26.1369 141.332 25.8252C142.022 25.513 142.819 25.3343 143.724 25.2889C144.747 25.2377 145.562 25.4159 146.17 25.8233C146.778 26.2308 147.101 26.8233 147.14 27.601C147.166 28.1124 147.098 28.559 146.935 28.941C146.773 29.3229 146.564 29.643 146.31 29.9014C146.056 30.1598 145.714 30.4653 145.283 30.8179C144.749 31.2398 144.335 31.6237 144.043 31.9694C143.75 32.3151 143.564 32.741 143.482 33.247L142.3 33.3062ZM142.504 36.7403C142.28 36.7515 142.084 36.6865 141.917 36.5454C141.76 36.3931 141.676 36.2104 141.665 35.9973C141.653 35.7523 141.723 35.5459 141.875 35.3781C142.037 35.1991 142.24 35.1034 142.485 35.0912C142.709 35.08 142.899 35.1452 143.056 35.2869C143.223 35.428 143.312 35.6051 143.322 35.8182C143.335 36.0632 143.26 36.2752 143.098 36.4542C142.947 36.6327 142.749 36.7281 142.504 36.7403Z" fill="#E5E5F0"/>
<path d="M7.90131 73.65C7.67317 73.9957 7.20796 74.091 6.86224 73.8629L1.2283 70.1452C0.882571 69.917 0.787242 69.4518 1.01538 69.1061C1.24352 68.7604 1.70872 68.6651 2.05445 68.8932L7.0624 72.1978L10.367 67.1899C10.5951 66.8441 11.0604 66.7488 11.4061 66.9769C11.7518 67.2051 11.8471 67.6703 11.619 68.016L7.90131 73.65ZM53.3478 27.7389C37.7019 30.4707 25.2344 36.4196 17.2553 44.3733C9.29447 52.3088 5.7883 62.2438 8.01005 73.0863L6.54058 73.3874C4.20577 61.9931 7.92131 51.5597 16.1963 43.311C24.4531 35.0805 37.2356 29.0294 53.0897 26.2612L53.3478 27.7389Z" fill="#E5E5F0"/>
</svg>
