<svg width="547" height="509" viewBox="0 0 547 509" fill="none" xmlns="http://www.w3.org/2000/svg">
<path opacity="0.2" d="M249.579 116.154L251.399 116.983L249.579 116.154ZM243.709 129.036L241.889 128.206V128.206L243.709 129.036ZM244.171 102.233L244.958 100.394L244.171 102.233ZM187.931 78.1906L187.145 80.0296L187.931 78.1906ZM175.725 81.1507L174.182 79.8774L175.725 81.1507ZM168.436 89.9796L169.978 91.2529V91.2529L168.436 89.9796ZM169.114 104.004L170.527 102.588L169.114 104.004ZM197.28 132.099L198.693 130.683V130.683L197.28 132.099ZM300.95 129.036L302.77 128.206V128.206L300.95 129.036ZM295.08 116.154L296.9 115.325V115.325L295.08 116.154ZM347.378 132.099L345.966 130.683V130.683L347.378 132.099ZM375.544 104.004L376.957 105.42L375.544 104.004ZM376.223 89.9796L377.765 88.7062V88.7062L376.223 89.9796ZM368.934 81.1507L367.392 82.4241V82.4241L368.934 81.1507ZM356.727 78.1906L357.513 80.0296L356.727 78.1906ZM300.487 102.233L299.701 100.394L300.487 102.233ZM219.979 210.876L219.979 212.876H219.979V210.876ZM429.382 106.438H431.382V106.438L429.382 106.438ZM325.161 2.00109L325.152 4.00109L325.161 4.00109L325.161 2.00109ZM219.979 2V4V2ZM219.666 210.876L219.658 212.876H219.663L219.666 210.876ZM219.499 210.875L219.507 208.875H219.499V210.875ZM119.115 459.631V461.631V459.631ZM35.9252 332.611V330.611V332.611ZM21.435 366.467L19.9897 367.849H19.9897L21.435 366.467ZM104.625 453.441L103.18 454.823L104.625 453.441ZM50.6064 338.932L52.1508 337.661L52.1508 337.661L50.6064 338.932ZM45.9572 332.611L47.6313 331.517L47.0392 330.611H45.9572V332.611ZM149.908 459.631V461.631H154.143L151.452 458.36L149.908 459.631ZM442.434 452.91L443.928 454.24L442.434 452.91ZM519.82 365.936L521.314 367.266L519.82 365.936ZM427.454 459.631V457.631V459.631ZM504.84 332.611V334.611V332.611ZM496.392 338.932L494.847 337.661V337.661L496.392 338.932ZM501.041 332.611V330.611H499.959L499.367 331.517L501.041 332.611ZM397.09 459.631L395.546 458.36L392.855 461.631H397.09V459.631ZM540.793 254.049L539.247 252.78L540.793 254.049ZM507.649 294.431L505.658 294.244L505.049 300.751L509.195 295.699L507.649 294.431ZM477.298 231.146V229.146H470.634L476.197 232.816L477.298 231.146ZM6.20729 254.049L7.75325 252.78H7.75325L6.20729 254.049ZM39.3497 294.429L37.8037 295.698L41.9496 300.75L41.341 294.243L39.3497 294.429ZM69.7009 231.146L70.8022 232.816L76.3646 229.146H69.7009V231.146ZM184.569 482.271L186.114 481.001L184.569 482.271ZM362.431 482.271L363.975 483.542L362.431 482.271ZM353.7 475.102L355.244 476.373L353.7 475.102ZM193.3 475.102L194.845 473.831L193.3 475.102ZM124.234 343.136L122.689 344.407L124.234 343.136ZM422.759 343.136L421.215 341.866L422.759 343.136ZM73.7105 329.65L72.1113 330.851L73.7105 329.65ZM473.28 329.664L474.878 330.865L474.878 330.865L473.28 329.664ZM471.629 331.762L473.173 333.033L473.173 333.033L471.629 331.762ZM75.3714 331.762L73.8269 333.033H73.8269L75.3714 331.762ZM223.639 459.63L224.653 457.906L223.639 459.63ZM323.354 459.63L322.34 457.906L323.354 459.63ZM51.3754 302.437L49.3841 302.624L51.3754 302.437ZM81.7265 239.154L80.6252 237.485L81.7265 239.154ZM495.625 302.439L497.616 302.625L495.625 302.439ZM465.274 239.154L466.375 237.485L465.274 239.154ZM480.36 338.931L478.815 337.661H478.815L480.36 338.931ZM381.058 459.63L382.603 460.901L381.058 459.63ZM132.965 335.967L134.509 334.697H134.509L132.965 335.967ZM130.513 332.611L132.194 331.528L130.513 332.611ZM414.028 335.967L415.573 337.238L414.028 335.967ZM61.9912 332.611L60.3172 333.705L61.9912 332.611ZM66.6404 338.931L68.1848 337.661L66.6404 338.931ZM165.942 459.63L164.397 460.901H164.397L165.942 459.63ZM207.067 364.816L208.612 363.545L207.067 364.816ZM339.941 364.816L341.485 366.086L339.941 364.816ZM215.798 357.647L214.254 358.917L215.798 357.647ZM249.844 399.028L251.389 397.758L249.844 399.028ZM331.21 357.647L329.665 356.376L331.21 357.647ZM342.487 332.611L344.215 331.602L342.487 332.611ZM219.71 332.611L220.795 334.291L219.71 332.611ZM247.759 115.325L241.889 128.206L245.529 129.865L251.399 116.983L247.759 115.325ZM243.385 104.072C247.753 105.939 249.721 111.018 247.759 115.325L251.399 116.983C254.295 110.626 251.384 103.141 244.958 100.394L243.385 104.072ZM187.145 80.0296L243.385 104.072L244.958 100.394L188.718 76.3516L187.145 80.0296ZM177.267 82.4241C179.659 79.5269 183.683 78.5497 187.145 80.0296L188.718 76.3516C183.627 74.1753 177.706 75.6099 174.182 79.8774L177.267 82.4241ZM169.978 91.2529L177.267 82.4241L174.182 79.8774L166.893 88.7062L169.978 91.2529ZM170.527 102.588C167.444 99.513 167.208 94.6085 169.978 91.2529L166.893 88.7062C162.809 93.6539 163.159 100.888 167.702 105.42L170.527 102.588ZM198.693 130.683L170.527 102.588L167.702 105.42L195.868 133.515L198.693 130.683ZM204.684 133.158C202.436 133.158 200.281 132.267 198.693 130.683L195.868 133.515C198.207 135.848 201.378 137.158 204.684 137.158V133.158ZM234.177 133.158H204.684V137.158H234.177V133.158ZM241.889 128.206C240.516 131.22 237.501 133.158 234.177 133.158V137.158C239.064 137.158 243.504 134.308 245.529 129.865L241.889 128.206ZM302.77 128.206L296.9 115.325L293.26 116.983L299.13 129.865L302.77 128.206ZM310.482 133.158C307.157 133.158 304.143 131.22 302.77 128.206L299.13 129.865C301.155 134.308 305.594 137.158 310.482 137.158V133.158ZM339.975 133.158H310.482V137.158H339.975V133.158ZM345.966 130.683C344.378 132.267 342.223 133.158 339.975 133.158V137.158C343.28 137.158 346.452 135.848 348.791 133.515L345.966 130.683ZM374.132 102.588L345.966 130.683L348.791 133.515L376.957 105.42L374.132 102.588ZM374.681 91.2529C377.451 94.6085 377.214 99.513 374.132 102.588L376.957 105.42C381.5 100.888 381.85 93.6539 377.765 88.7062L374.681 91.2529ZM367.392 82.4241L374.681 91.2529L377.765 88.7062L370.476 79.8774L367.392 82.4241ZM357.513 80.0296C360.975 78.5497 365 79.5269 367.392 82.4241L370.476 79.8774C366.953 75.6099 361.032 74.1753 355.941 76.3516L357.513 80.0296ZM301.273 104.072L357.513 80.0296L355.941 76.3516L299.701 100.394L301.273 104.072ZM296.9 115.325C294.937 111.018 296.906 105.939 301.273 104.072L299.701 100.394C293.275 103.141 290.363 110.626 293.26 116.983L296.9 115.325ZM324.681 208.876H219.979V212.876H324.681V208.876ZM427.382 106.438C427.382 163.008 381.406 208.876 324.681 208.876V212.876C383.606 212.876 431.382 165.227 431.382 106.438H427.382ZM427.381 33.3314L427.382 106.438L431.382 106.438L431.381 33.3314L427.381 33.3314ZM397.971 4C414.218 4 427.381 17.1369 427.381 33.3314H431.381C431.381 14.9182 416.418 0 397.971 0V4ZM325.161 4.00109L397.971 4L397.971 0L325.161 0.00108647L325.161 4.00109ZM324.681 4C324.838 4 324.995 4.00036 325.152 4.00107L325.17 0.00110662C325.007 0.000376701 324.844 0 324.681 0V4ZM219.979 4H324.681V0H219.979V4ZM117.279 105.968C117.533 49.6141 163.411 4 219.979 4V0C161.218 -5.00679e-06 113.543 47.3855 113.279 105.95L117.279 105.968ZM117.278 179.544L117.279 105.959L113.279 105.959L113.278 179.544L117.278 179.544ZM146.688 208.875C130.441 208.875 117.278 195.738 117.278 179.544H113.278C113.278 197.957 128.241 212.875 146.688 212.875V208.875ZM219.979 208.876L146.688 208.875L146.688 212.875L219.979 212.876L219.979 208.876ZM193.804 41.7752C158.009 41.7752 128.983 70.721 128.983 106.438H132.983C132.983 72.9397 160.209 45.7752 193.804 45.7752V41.7752ZM350.856 41.7752H193.804V45.7752H350.856V41.7752ZM415.677 106.438C415.677 70.721 386.651 41.7752 350.856 41.7752V45.7752C384.451 45.7752 411.677 72.9397 411.677 106.438H415.677ZM350.856 171.101C386.651 171.101 415.677 142.155 415.677 106.438H411.677C411.677 139.936 384.451 167.101 350.856 167.101V171.101ZM193.804 171.101H350.856V167.101H193.804V171.101ZM128.983 106.438C128.983 142.155 158.009 171.101 193.804 171.101V167.101C160.209 167.101 132.983 139.936 132.983 106.438H128.983ZM193.804 52.219C163.792 52.219 139.453 76.489 139.453 106.438H143.453C143.453 78.7076 165.991 56.219 193.804 56.219V52.219ZM350.856 52.219H193.804V56.219H350.856V52.219ZM405.207 106.438C405.207 76.489 380.868 52.219 350.856 52.219V56.219C378.669 56.219 401.207 78.7076 401.207 106.438H405.207ZM350.856 160.657C380.868 160.657 405.207 136.387 405.207 106.438H401.207C401.207 134.169 378.669 156.657 350.856 156.657V160.657ZM193.804 160.657H350.856V156.657H193.804V160.657ZM139.453 106.438C139.453 136.387 163.792 160.657 193.804 160.657V156.657C165.991 156.657 143.453 134.169 143.453 106.438H139.453ZM324.681 4H397.971V0H324.681V4ZM427.382 106.438C427.382 106.595 427.382 106.751 427.381 106.908L431.381 106.926C431.382 106.764 431.382 106.601 431.382 106.438H427.382ZM427.381 106.908C427.127 163.262 381.249 208.876 324.681 208.876V212.876C383.442 212.876 431.117 165.491 431.381 106.926L427.381 106.908ZM427.381 33.3314V106.917H431.381V33.3314H427.381ZM113.278 106.438V179.544H117.278V106.438H113.278ZM219.982 208.876L219.669 208.876L219.663 212.876L219.976 212.876L219.982 208.876ZM219.673 208.876L219.507 208.875L219.491 212.875L219.658 212.876L219.673 208.876ZM146.688 212.875H219.499V208.875H146.688V212.875ZM117.278 106.438C117.278 106.281 117.278 106.125 117.279 105.968L113.279 105.95C113.278 106.113 113.278 106.275 113.278 106.438H117.278ZM348.856 43.7752V54.219H352.856V43.7752H348.856ZM191.804 43.7752V54.219H195.804V43.7752H191.804ZM413.677 104.438H403.207V108.438H413.677V104.438ZM352.856 169.101V158.657H348.856V169.101H352.856ZM195.804 169.101V158.657H191.804V169.101H195.804ZM141.453 104.438H130.983V108.438H141.453V104.438ZM35.9252 330.611C16.532 330.611 6.58556 353.835 19.9897 367.849L22.8803 365.084C11.9154 353.621 20.0448 334.611 35.9252 334.611V330.611ZM119.115 457.631C114.187 457.631 109.474 455.617 106.07 452.058L103.18 454.823C107.339 459.171 113.096 461.631 119.115 461.631V457.631ZM44.2831 333.706C45.7285 335.917 47.3201 338.085 49.0619 340.203L52.1508 337.661C50.501 335.656 48.996 333.605 47.6313 331.517L44.2831 333.706ZM149.908 457.631H119.115V461.631H149.908V457.631ZM45.9572 330.611H35.9252V334.611H45.9572V330.611ZM521.314 367.266C533.953 353.06 523.856 330.611 504.84 330.611V334.611C520.412 334.611 528.665 352.987 518.326 364.607L521.314 367.266ZM440.94 451.581C437.516 455.429 432.609 457.631 427.454 457.631V461.631C433.75 461.631 439.745 458.941 443.928 454.24L440.94 451.581ZM499.367 331.517C498.002 333.605 496.497 335.656 494.847 337.661L497.936 340.202C499.678 338.085 501.27 335.917 502.715 333.706L499.367 331.517ZM427.454 457.631H397.09V461.631H427.454V457.631ZM504.84 330.611H501.041V334.611H504.84V330.611ZM529.944 233.146C540.102 233.146 545.682 244.94 539.247 252.78L542.339 255.318C550.921 244.861 543.471 229.146 529.944 229.146V233.146ZM509.641 294.617C512.029 269.085 499.843 243.623 478.4 229.477L476.197 232.816C496.406 246.148 507.909 270.182 505.658 294.244L509.641 294.617ZM477.298 233.146H529.944V229.146H477.298V233.146ZM509.195 295.699L542.339 255.318L539.247 252.78L506.103 293.162L509.195 295.699ZM7.75325 252.78C1.31821 244.939 6.89837 233.146 17.0561 233.146V229.146C3.5287 229.146 -3.9213 244.861 4.66132 255.318L7.75325 252.78ZM41.341 294.243C39.0901 270.181 50.5935 246.147 70.8022 232.816L68.5995 229.477C47.1566 243.623 34.97 269.084 37.3584 294.616L41.341 294.243ZM17.0561 233.146H69.7009V229.146H17.0561V233.146ZM4.66132 255.318L37.8037 295.698L40.8957 293.161L7.75325 252.78L4.66132 255.318ZM236.955 505C217.267 505 198.614 496.195 186.114 481.001L183.025 483.542C196.285 499.66 216.072 509 236.955 509V505ZM310.045 505H236.955V509H310.045V505ZM360.886 481.001C348.386 496.195 329.733 505 310.045 505V509C330.928 509 350.715 499.66 363.975 483.542L360.886 481.001ZM310.045 497.709C327.547 497.709 344.13 489.882 355.244 476.373L352.155 473.831C341.802 486.416 326.352 493.709 310.045 493.709V497.709ZM191.756 476.373C202.87 489.882 219.453 497.709 236.955 497.709V493.709C220.648 493.709 205.198 486.416 194.845 473.831L191.756 476.373ZM300.421 463.873H246.572V467.873H300.421V463.873ZM300.421 456.582C311.161 456.582 321.338 451.779 328.158 443.488L325.069 440.947C319.009 448.313 309.966 452.582 300.421 452.582V456.582ZM246.572 456.582H300.421V452.582H246.572V456.582ZM218.835 443.489C225.655 451.779 235.832 456.582 246.572 456.582V452.582C237.027 452.582 227.984 448.313 221.924 440.947L218.835 443.489ZM431.135 333.427C444.409 303.718 423.2 267.297 387.835 267.297V271.297C420.171 271.297 439.629 304.611 427.483 331.795L431.135 333.427ZM159.158 267.297C123.793 267.297 102.584 303.718 115.858 333.427L119.51 331.795C107.364 304.611 126.822 271.297 159.158 271.297V267.297ZM75.3096 328.449C48.6489 292.954 73.8569 241.464 119.026 241.464V237.464C70.5415 237.464 43.4811 292.734 72.1113 330.851L75.3096 328.449ZM427.974 241.464C473.149 241.464 498.357 292.967 471.681 328.462L474.878 330.865C503.526 292.747 476.464 237.464 427.974 237.464V241.464ZM473.173 333.033C473.762 332.317 474.33 331.595 474.878 330.865L471.681 328.462C471.168 329.144 470.636 329.821 470.084 330.492L473.173 333.033ZM72.1113 330.851C72.6626 331.585 73.2344 332.313 73.8269 333.033L76.9158 330.492C76.3607 329.817 75.8254 329.136 75.3096 328.449L72.1113 330.851ZM125.778 341.866C123.139 338.657 121.064 335.273 119.51 331.795L115.858 333.427C117.56 337.235 119.824 340.925 122.689 344.407L125.778 341.866ZM472.407 333.88L474.826 330.933L471.734 328.395L469.315 331.342L472.407 333.88ZM72.1645 330.919L74.5945 333.88L77.6864 331.342L75.2564 328.381L72.1645 330.919ZM427.483 331.795C425.929 335.273 423.855 338.657 421.215 341.866L424.304 344.407C427.169 340.925 429.433 337.235 431.135 333.427L427.483 331.795ZM74.5945 333.88L104.08 369.805L107.172 367.268L77.6864 331.342L74.5945 333.88ZM104.082 369.807L179.027 460.901L182.116 458.359L107.171 367.266L104.082 369.807ZM224.653 457.906C220.337 455.368 216.448 452.072 213.193 448.116L210.104 450.658C213.66 454.98 217.91 458.582 222.626 461.354L224.653 457.906ZM246.572 463.873C238.773 463.873 231.22 461.768 224.653 457.906L222.626 461.354C229.8 465.573 238.051 467.873 246.572 467.873V463.873ZM104.08 369.805L178.846 460.899L181.938 458.361L107.172 367.268L104.08 369.805ZM179.027 460.901L191.756 476.373L194.845 473.831L182.116 458.359L179.027 460.901ZM180.571 457.63H180.392V461.63H180.571V457.63ZM300.421 467.873C308.942 467.873 317.193 465.573 324.368 461.354L322.34 457.906C315.773 461.768 308.221 463.873 300.421 463.873V467.873ZM364.885 458.359L352.155 473.831L355.244 476.373L367.973 460.901L364.885 458.359ZM366.609 457.63H366.429V461.63H366.609V457.63ZM333.8 448.116C330.546 452.072 326.656 455.368 322.34 457.906L324.368 461.354C329.083 458.582 333.333 454.98 336.889 450.658L333.8 448.116ZM53.3667 302.251C51.1158 278.189 62.6192 254.155 82.8279 240.824L80.6252 237.485C59.1823 251.631 46.9957 277.092 49.3841 302.624L53.3667 302.251ZM82.8279 240.824C92.912 234.171 105.179 230.173 119.026 230.173V226.173C104.385 226.173 91.3539 230.407 80.6252 237.485L82.8279 240.824ZM497.616 302.625C500.005 277.093 487.818 251.631 466.375 237.485L464.172 240.824C484.381 254.155 495.885 278.19 493.633 302.252L497.616 302.625ZM427.974 230.173C441.821 230.173 454.088 234.171 464.172 240.824L466.375 237.485C455.646 230.407 442.615 226.173 427.974 226.173V230.173ZM483.335 331.517C481.97 333.604 480.465 335.655 478.815 337.661L481.904 340.202C483.646 338.085 485.238 335.916 486.683 333.705L483.335 331.517ZM478.815 337.661L379.514 458.359L382.603 460.901L481.904 340.202L478.815 337.661ZM381.058 457.63H366.609V461.63H381.058V457.63ZM379.514 458.359L360.886 481.001L363.975 483.542L382.603 460.901L379.514 458.359ZM493.633 302.252C492.698 312.247 489.39 322.254 483.335 331.517L486.683 333.705C493.101 323.887 496.621 313.253 497.616 302.625L493.633 302.252ZM469.315 331.342L440.223 366.788L443.315 369.326L472.407 333.88L469.315 331.342ZM440.224 366.786L364.885 458.359L367.973 460.901L443.313 369.327L440.224 366.786ZM368.155 460.899L443.315 369.326L440.223 366.788L365.064 458.361L368.155 460.899ZM134.509 334.697C133.659 333.663 132.888 332.605 132.194 331.528L128.832 333.694C129.61 334.902 130.472 336.085 131.42 337.238L134.509 334.697ZM414.799 331.528C414.105 332.605 413.334 333.663 412.484 334.697L415.573 337.238C416.521 336.085 417.383 334.902 418.161 333.694L414.799 331.528ZM418.161 333.694C433.147 310.431 416.67 278.588 387.835 278.588V282.588C413.445 282.588 428.101 310.877 414.799 331.528L418.161 333.694ZM429.309 330.611H416.48V334.611H429.309V330.611ZM130.513 330.611H117.684V334.611H130.513V330.611ZM159.158 278.588C130.324 278.588 113.846 310.431 128.832 333.694L132.194 331.528C118.892 310.877 133.548 282.588 159.158 282.588V278.588ZM60.3172 333.705C61.7625 335.916 63.3541 338.085 65.0959 340.202L68.1848 337.661C66.535 335.655 65.03 333.604 63.6653 331.517L60.3172 333.705ZM65.0959 340.202L164.397 460.901L167.486 458.359L68.1848 337.661L65.0959 340.202ZM165.942 461.63H180.392V457.63H165.942V461.63ZM186.114 481.001L167.486 458.359L164.397 460.901L183.025 483.542L186.114 481.001ZM63.6653 331.517C57.6103 322.254 54.3017 312.246 53.3667 302.251L49.3841 302.624C50.3783 313.253 53.8984 323.886 60.3172 333.705L63.6653 331.517ZM73.8269 333.033L74.5252 333.882L77.6141 331.34L76.9158 330.492L73.8269 333.033ZM76.0696 334.611H76.1404V330.611H76.0696V334.611ZM470.861 334.611H470.93V330.611H470.861V334.611ZM472.475 333.882L473.173 333.033L470.084 330.492L469.386 331.34L472.475 333.882ZM76.0696 330.611H61.9912V334.611H76.0696V330.611ZM443.313 369.327L472.475 333.882L469.386 331.34L440.224 366.786L443.313 369.327ZM470.93 334.611H485.009V330.611H470.93V334.611ZM74.5252 333.882L104.082 369.807L107.171 367.266L77.6141 331.34L74.5252 333.882ZM212.918 450.933L221.649 443.764L219.11 440.672L210.379 447.841L212.918 450.933ZM336.614 447.841L327.883 440.672L325.344 443.763L334.075 450.933L336.614 447.841ZM238.955 507V495.709H234.955V507H238.955ZM248.572 465.873V454.582H244.572V465.873H248.572ZM298.421 454.582V465.873H302.421V454.582H298.421ZM308.045 495.709V507H312.045V495.709H308.045ZM157.158 269.297V280.588H161.158V269.297H157.158ZM385.835 269.297V280.588H389.835V269.297H385.835ZM427.974 237.154H273.5V241.154H427.974V237.154ZM273.5 237.154H119.026V241.154H273.5V237.154ZM119.026 230.173H273.5V226.173H119.026V230.173ZM273.5 230.173H427.974V226.173H273.5V230.173ZM275.5 239.154V228.173H271.5V239.154H275.5ZM429.974 239.464V239.154H425.974V239.464H429.974ZM429.974 239.154V228.173H425.974V239.154H429.974ZM121.026 239.464V239.154H117.026V239.464H121.026ZM121.026 239.154V228.173H117.026V239.154H121.026ZM427.974 237.464H273.5V241.464H427.974V237.464ZM273.5 237.464H119.026V241.464H273.5V237.464ZM242.658 404.927L208.612 363.545L205.523 366.086L239.569 407.468L242.658 404.927ZM262.941 414.501C255.086 414.501 247.644 410.988 242.658 404.927L239.569 407.468C245.316 414.454 253.891 418.501 262.941 418.501V414.501ZM284.068 414.501H262.941V418.501H284.068V414.501ZM304.351 404.927C299.364 410.988 291.922 414.501 284.068 414.501V418.501C293.118 418.501 301.693 414.454 307.44 407.468L304.351 404.927ZM338.396 363.545L304.351 404.927L307.44 407.468L341.485 366.086L338.396 363.545ZM214.254 358.917L248.3 400.299L251.389 397.758L217.343 356.376L214.254 358.917ZM298.709 400.299L332.754 358.917L329.665 356.376L295.62 397.758L298.709 400.299ZM284.068 407.211C289.737 407.211 295.108 404.675 298.709 400.299L295.62 397.758C292.78 401.21 288.542 403.211 284.068 403.211V407.211ZM262.941 407.211H284.068V403.211H262.941V407.211ZM248.3 400.299C251.9 404.675 257.272 407.211 262.941 407.211V403.211C258.467 403.211 254.229 401.21 251.389 397.758L248.3 400.299ZM202.794 331.602C196.837 341.804 196.742 355.413 205.523 366.086L208.612 363.545C200.996 354.288 201.053 342.518 206.248 333.619L202.794 331.602ZM341.485 366.086C350.266 355.413 350.171 341.804 344.215 331.602L340.76 333.619C345.956 342.518 346.012 354.288 338.396 363.545L341.485 366.086ZM318.113 320.666C328.302 320.666 336.36 326.082 340.76 333.619L344.215 331.602C339.154 322.935 329.833 316.666 318.113 316.666V320.666ZM206.248 333.619C210.649 326.082 218.707 320.666 228.895 320.666V316.666C217.175 316.666 207.854 322.935 202.794 331.602L206.248 333.619ZM217.343 356.376C211.3 349.03 213.74 338.843 220.795 334.291L218.626 330.93C209.747 336.659 206.554 349.558 214.254 358.917L217.343 356.376ZM326.214 334.291C333.269 338.843 335.709 349.03 329.665 356.376L332.754 358.917C340.454 349.558 337.261 336.659 328.382 330.93L326.214 334.291ZM328.382 330.93C325.489 329.063 322 327.957 318.113 327.957V331.957C321.221 331.957 323.958 332.836 326.214 334.291L328.382 330.93ZM342.487 330.611H327.298V334.611H342.487V330.611ZM219.71 330.611H204.521V334.611H219.71V330.611ZM228.895 327.957C225.008 327.957 221.52 329.063 218.626 330.93L220.795 334.291C223.05 332.836 225.787 331.957 228.895 331.957V327.957ZM228.895 320.666H318.113V316.666H228.895V320.666ZM181.197 461.53L212.275 451.286L211.022 447.487L179.945 457.731L181.197 461.53ZM367.055 457.731L335.971 447.487L334.719 451.286L365.803 461.53L367.055 457.731ZM159.158 271.297H273.497V267.297H159.158V271.297ZM273.497 271.297H387.835V267.297H273.497V271.297ZM426.773 237.555L386.634 267.698L389.036 270.897L429.175 240.753L426.773 237.555ZM160.359 267.698L120.227 237.555L117.825 240.753L157.957 270.897L160.359 267.698ZM470.861 330.611H429.309V334.611H470.861V330.611ZM76.1404 334.611H117.684V330.611H76.1404V334.611ZM271.5 239.463L271.497 269.297L275.497 269.298L275.5 239.464L271.5 239.463ZM238.859 496.323L248.476 466.486L244.669 465.259L235.052 495.096L238.859 496.323ZM298.517 466.487L308.142 496.323L311.948 495.095L302.324 465.259L298.517 466.487ZM248.575 397.483L239.844 404.652L242.382 407.743L251.113 400.574L248.575 397.483ZM295.895 400.574L304.626 407.743L307.164 404.652L298.433 397.483L295.895 400.574ZM275.497 280.588V269.297H271.497V280.588H275.497ZM236.955 497.709H310.045V493.709H236.955V497.709ZM49.0619 340.203L148.363 460.901L151.452 458.36L52.1508 337.661L49.0619 340.203ZM19.9897 367.849L103.18 454.823L106.07 452.058L22.8803 365.084L19.9897 367.849ZM494.847 337.661L395.546 458.36L398.635 460.901L497.936 340.202L494.847 337.661ZM443.928 454.24L521.314 367.266L518.326 364.607L440.94 451.581L443.928 454.24ZM131.42 337.238L218.835 443.489L221.924 440.947L134.509 334.697L131.42 337.238ZM328.158 443.488L415.573 337.238L412.484 334.697L325.069 440.947L328.158 443.488ZM318.113 327.957H228.895V331.957H318.113V327.957ZM213.193 448.116L125.778 341.866L122.689 344.407L210.104 450.658L213.193 448.116ZM421.215 341.866L333.8 448.116L336.889 450.658L424.304 344.407L421.215 341.866ZM273.497 278.588H159.158V282.588H273.497V278.588ZM387.835 278.588H273.497V282.588H387.835V278.588Z" fill="#292933"/>
</svg>
