<svg width="203" height="140" viewBox="0 0 203 140" fill="none" xmlns="http://www.w3.org/2000/svg">
<rect width="203" height="140" rx="5" fill="#181820"/>
<path fill-rule="evenodd" clip-rule="evenodd" d="M108.782 65.7815H94.8908L85.1672 65.7814C82.8657 65.7814 81 63.9157 81 61.6142L81.0001 51.827C81.0345 44.1847 87.2404 38 94.8908 38H108.782L108.845 38.0001L118.505 38C120.806 38 122.672 39.8657 122.672 42.1672L122.672 51.8908C122.672 59.5624 116.453 65.7815 108.782 65.7815ZM91.4181 43.5563C86.8151 43.5563 83.0836 47.2878 83.0836 51.8908C83.0836 56.4938 86.8151 60.2252 91.4181 60.2252H112.254C116.857 60.2252 120.589 56.4938 120.589 51.8908C120.589 47.2878 116.857 43.5563 112.254 43.5563H91.4181ZM98.039 54.8964L98.8178 53.1831C99.1402 52.474 98.8164 51.6384 98.1004 51.3316L90.6391 48.1338C90.0717 47.8907 89.412 48.0511 89.0196 48.5275L88.0526 49.7018C87.5978 50.254 87.6368 51.0613 88.1426 51.5671L91.8794 55.3039C92.1399 55.5644 92.4932 55.7107 92.8616 55.7107H96.7745C97.3192 55.7107 97.8136 55.3923 98.039 54.8964ZM105.633 54.8964L104.854 53.1831C104.532 52.474 104.856 51.6384 105.572 51.3316L113.033 48.1338C113.601 47.8907 114.26 48.0511 114.653 48.5275L115.62 49.7018C116.074 50.254 116.036 51.0613 115.53 51.5671L111.793 55.3039C111.532 55.5644 111.179 55.7107 110.811 55.7107H106.898C106.353 55.7107 105.859 55.3923 105.633 54.8964ZM143.47 98.2345C143.826 97.3641 144.004 96.4106 144.004 95.374V92.1217C144.004 91.093 143.826 90.1435 143.47 89.273C143.113 88.3947 142.619 87.643 141.986 87.0178C141.353 86.3848 140.601 85.8902 139.731 85.5341C138.868 85.178 137.926 85 136.906 85H132.728C131.707 85 130.761 85.178 129.891 85.5341C129.02 85.8902 128.269 86.3848 127.636 87.0178C127.002 87.643 126.504 88.3947 126.14 89.273C125.784 90.1435 125.606 91.093 125.606 92.1217V95.374C125.606 96.4106 125.784 97.3641 126.14 98.2345C126.504 99.105 127.002 99.8567 127.636 100.49C128.269 101.123 129.02 101.617 129.891 101.973C130.761 102.322 131.707 102.496 132.728 102.496H136.906C137.926 102.496 138.868 102.322 139.731 101.973C140.601 101.617 141.353 101.123 141.986 100.49C142.619 99.8567 143.113 99.105 143.47 98.2345ZM140.621 90.4719C140.819 90.9625 140.918 91.5124 140.918 92.1217V95.374C140.918 95.9833 140.819 96.5372 140.621 97.0357C140.431 97.5263 140.158 97.9497 139.802 98.3058C139.446 98.6539 139.018 98.9269 138.52 99.1248C138.029 99.3147 137.483 99.4096 136.882 99.4096H132.728C132.126 99.4096 131.576 99.3147 131.078 99.1248C130.587 98.9269 130.164 98.6539 129.808 98.3058C129.452 97.9497 129.175 97.5263 128.977 97.0357C128.787 96.5372 128.692 95.9833 128.692 95.374V92.1217C128.692 91.5124 128.787 90.9625 128.977 90.4719C129.175 89.9733 129.452 89.55 129.808 89.2018C130.164 88.8457 130.587 88.5727 131.078 88.3828C131.576 88.185 132.126 88.0861 132.728 88.0861H136.906C137.499 88.0861 138.041 88.185 138.532 88.3828C139.03 88.5727 139.454 88.8457 139.802 89.2018C140.158 89.55 140.431 89.9733 140.621 90.4719ZM123.244 99.742C123.378 99.3068 123.446 98.8992 123.446 98.5194V97.9259C123.446 97.3245 123.378 96.7746 123.244 96.2761C123.109 95.7775 122.927 95.3305 122.698 94.9348C122.468 94.5392 122.199 94.191 121.891 93.8903C121.59 93.5896 121.266 93.3324 120.917 93.1188C121.321 92.5569 121.614 91.9635 121.796 91.3383C121.978 90.7053 122.069 90.1158 122.069 89.5698V88.9882C122.069 88.2997 121.942 87.7181 121.689 87.2433C121.444 86.7686 121.131 86.3848 120.751 86.092C120.379 85.7913 119.976 85.5737 119.541 85.4392C119.105 85.3047 118.698 85.2374 118.318 85.2374H107.991C107.77 85.2374 107.564 85.277 107.374 85.3561C107.184 85.4352 107.018 85.546 106.876 85.6884C106.741 85.8309 106.634 85.997 106.555 86.187C106.476 86.3769 106.437 86.5787 106.437 86.7923V100.703C106.437 100.925 106.476 101.131 106.555 101.321C106.634 101.511 106.741 101.677 106.876 101.819C107.018 101.954 107.184 102.06 107.374 102.14C107.564 102.219 107.77 102.258 107.991 102.258H119.707C120.395 102.258 120.977 102.136 121.451 101.89C121.926 101.637 122.31 101.325 122.603 100.953C122.904 100.581 123.117 100.177 123.244 99.742ZM120.17 96.8458C120.296 97.1623 120.36 97.5224 120.36 97.9259V98.4957C120.36 98.6618 120.336 98.7924 120.288 98.8874C120.241 98.9823 120.185 99.0496 120.122 99.0892C120.059 99.1287 119.988 99.1525 119.908 99.1604C119.829 99.1683 119.762 99.1722 119.707 99.1722H109.523V88.3235H118.318C118.745 88.3235 118.959 88.545 118.959 88.9882V89.5698C118.959 89.9733 118.896 90.3373 118.769 90.6618C118.65 90.9783 118.476 91.2513 118.247 91.4808C118.017 91.7103 117.74 91.8883 117.416 92.0149C117.091 92.1336 116.727 92.1929 116.324 92.1929H110.757V95.3028H117.713C118.116 95.3028 118.48 95.3661 118.805 95.4927C119.129 95.6114 119.406 95.7855 119.635 96.0149C119.865 96.2444 120.043 96.5214 120.17 96.8458ZM162.2 88.3235H155.398V102.258H152.312V88.3235H145.499V85.2374H162.2V88.3235ZM58.3978 95.374C58.3978 96.4106 58.2198 97.3641 57.8637 98.2345C57.5076 99.105 57.013 99.8567 56.38 100.49C55.7469 101.123 54.9952 101.617 54.1248 101.973C53.2622 102.322 52.3206 102.496 51.2998 102.496H47.1217C46.1009 102.496 45.1553 102.322 44.2849 101.973C43.4145 101.617 42.6627 101.123 42.0297 100.49C41.3967 99.8567 40.8981 99.105 40.5341 98.2345C40.178 97.3641 40 96.4106 40 95.374V92.1217C40 91.093 40.178 90.1435 40.5341 89.273C40.8981 88.3947 41.3967 87.643 42.0297 87.0178C42.6627 86.3848 43.4145 85.8902 44.2849 85.5341C45.1553 85.178 46.1009 85 47.1217 85H51.2998C52.3206 85 53.2622 85.178 54.1248 85.5341C54.9952 85.8902 55.7469 86.3848 56.38 87.0178C57.013 87.643 57.5076 88.3947 57.8637 89.273C58.2198 90.1435 58.3978 91.093 58.3978 92.1217V95.374ZM55.3117 92.1217C55.3117 91.5124 55.2128 90.9625 55.015 90.4719C54.8251 89.9733 54.5521 89.55 54.196 89.2018C53.8478 88.8457 53.4245 88.5727 52.9259 88.3828C52.4353 88.185 51.8933 88.0861 51.2998 88.0861H47.1217C46.5203 88.0861 45.9704 88.185 45.4719 88.3828C44.9813 88.5727 44.5579 88.8457 44.2018 89.2018C43.8457 89.55 43.5688 89.9733 43.3709 90.4719C43.181 90.9625 43.0861 91.5124 43.0861 92.1217V95.374C43.0861 95.9833 43.181 96.5372 43.3709 97.0357C43.5688 97.5263 43.8457 97.9497 44.2018 98.3058C44.5579 98.6539 44.9813 98.9269 45.4719 99.1248C45.9704 99.3147 46.5203 99.4096 47.1217 99.4096H51.2761C51.8775 99.4096 52.4235 99.3147 52.9141 99.1248C53.4126 98.9269 53.8399 98.6539 54.196 98.3058C54.5521 97.9497 54.8251 97.5263 55.015 97.0357C55.2128 96.5372 55.3117 95.9833 55.3117 95.374V92.1217ZM78.4573 100.941C78.4573 101.162 78.4138 101.368 78.3268 101.558C78.2476 101.748 78.1369 101.914 77.9944 102.057C77.8599 102.191 77.6977 102.298 77.5078 102.377C77.3179 102.456 77.1161 102.496 76.9024 102.496C76.7125 102.496 76.5186 102.46 76.3208 102.389C76.1309 102.318 75.9608 102.203 75.8104 102.045L64.5344 90.2701V102.258H61.4483V86.5549C61.4483 86.2384 61.5353 85.9535 61.7094 85.7003C61.8914 85.4392 62.1209 85.2453 62.3978 85.1187C62.6906 85 62.9913 84.9723 63.2999 85.0356C63.6085 85.091 63.8736 85.2334 64.0952 85.4629L75.3713 97.2256V85.2374H78.4573V100.941ZM86.3031 95.3028H96.048V92.1929H86.3031V95.3028ZM86.3031 102.258H97.4367V99.1722H86.3269C85.9154 99.1722 85.6028 99.0654 85.3892 98.8518C85.1755 98.6381 85.0687 98.3295 85.0687 97.9259V88.3235H97.4367V85.2374H83.5375C83.3159 85.2374 83.1102 85.277 82.9203 85.3561C82.7304 85.4352 82.5642 85.546 82.4218 85.6884C82.2872 85.8309 82.1804 85.997 82.1013 86.187C82.0222 86.3769 81.9826 86.5787 81.9826 86.7923V97.9259C81.9826 98.7252 82.125 99.4017 82.4099 99.9556C82.7027 100.502 83.0627 100.949 83.49 101.297C83.9252 101.637 84.3961 101.882 84.9025 102.033C85.4089 102.183 85.8758 102.258 86.3031 102.258Z" fill="url(#paint0_linear_138_3145)"/>
<defs>
<linearGradient id="paint0_linear_138_3145" x1="45.1634" y1="29.9936" x2="172.242" y2="50.84" gradientUnits="userSpaceOnUse">
<stop stop-color="#A4FFB8"/>
<stop offset="1" stop-color="#46A6FF"/>
</linearGradient>
</defs>
</svg>
