<svg width="178" height="29" viewBox="0 0 178 29" fill="none" xmlns="http://www.w3.org/2000/svg">
<path fill-rule="evenodd" clip-rule="evenodd" d="M27.7815 28.5633H13.8908L4.16723 28.5631C1.86573 28.5631 0 26.6974 0 24.3959L0.00014429 14.6088C0.0344688 6.96643 6.24036 0.781738 13.8908 0.781738H27.7815L27.8452 0.781883L37.5049 0.781738C39.8064 0.781738 41.6721 2.64747 41.6721 4.94897L41.6723 14.6725C41.6723 22.3442 35.4532 28.5633 27.7815 28.5633ZM10.4181 6.33804C5.81508 6.33804 2.08361 10.0695 2.08361 14.6725C2.08361 19.2755 5.81508 23.007 10.4181 23.007H31.2542C35.8572 23.007 39.5887 19.2755 39.5887 14.6725C39.5887 10.0695 35.8572 6.33804 31.2542 6.33804H10.4181ZM17.039 17.6782L17.8178 15.9649C18.1402 15.2557 17.8164 14.4201 17.1004 14.1133L9.63906 10.9156C9.07172 10.6724 8.41199 10.8328 8.01961 11.3093L7.05256 12.4835C6.59781 13.0357 6.63678 13.843 7.1426 14.3488L10.8794 18.0856C11.1399 18.3461 11.4932 18.4925 11.8616 18.4925H15.7745C16.3192 18.4925 16.8136 18.1741 17.039 17.6782ZM24.6332 17.6782L23.8545 15.9649C23.5321 15.2557 23.8558 14.4201 24.5718 14.1133L32.0332 10.9156C32.6006 10.6724 33.2603 10.8328 33.6527 11.3093L34.6197 12.4835C35.0745 13.0357 35.0355 13.843 34.5297 14.3488L30.7929 18.0856C30.5324 18.3461 30.1791 18.4925 29.8107 18.4925H25.8978C25.3531 18.4925 24.8587 18.1741 24.6332 17.6782ZM158.881 19.444C159.237 18.5736 159.415 17.6201 159.415 16.5835V13.3312C159.415 12.3025 159.237 11.3529 158.881 10.4825C158.525 9.60416 158.03 8.85243 157.397 8.2273C156.764 7.59425 156.012 7.09969 155.142 6.7436C154.279 6.38752 153.338 6.20947 152.317 6.20947H148.139C147.118 6.20947 146.172 6.38752 145.302 6.7436C144.431 7.09969 143.68 7.59425 143.047 8.2273C142.414 8.85243 141.915 9.60416 141.551 10.4825C141.195 11.3529 141.017 12.3025 141.017 13.3312V16.5835C141.017 17.6201 141.195 18.5736 141.551 19.444C141.915 20.3145 142.414 21.0662 143.047 21.6992C143.68 22.3323 144.431 22.8268 145.302 23.1829C146.172 23.5311 147.118 23.7052 148.139 23.7052H152.317C153.338 23.7052 154.279 23.5311 155.142 23.1829C156.012 22.8268 156.764 22.3323 157.397 21.6992C158.03 21.0662 158.525 20.3145 158.881 19.444ZM156.032 11.6813C156.23 12.1719 156.329 12.7219 156.329 13.3312V16.5835C156.329 17.1928 156.23 17.7467 156.032 18.2452C155.842 18.7358 155.569 19.1591 155.213 19.5152C154.857 19.8634 154.43 20.1364 153.931 20.3342C153.44 20.5241 152.894 20.6191 152.293 20.6191H148.139C147.537 20.6191 146.987 20.5241 146.489 20.3342C145.998 20.1364 145.575 19.8634 145.219 19.5152C144.863 19.1591 144.586 18.7358 144.388 18.2452C144.198 17.7467 144.103 17.1928 144.103 16.5835V13.3312C144.103 12.7219 144.198 12.1719 144.388 11.6813C144.586 11.1828 144.863 10.7595 145.219 10.4113C145.575 10.0552 145.998 9.78221 146.489 9.59229C146.987 9.39447 147.537 9.29556 148.139 9.29556H152.317C152.91 9.29556 153.452 9.39447 153.943 9.59229C154.441 9.78221 154.865 10.0552 155.213 10.4113C155.569 10.7595 155.842 11.1828 156.032 11.6813ZM138.655 20.9515C138.789 20.5162 138.857 20.1087 138.857 19.7289V19.1354C138.857 18.534 138.789 17.9841 138.655 17.4855C138.52 16.987 138.338 16.5399 138.109 16.1443C137.879 15.7486 137.61 15.4005 137.302 15.0998C137.001 14.7991 136.677 14.5419 136.329 14.3282C136.732 13.7664 137.025 13.1729 137.207 12.5478C137.389 11.9148 137.48 11.3252 137.48 10.7792V10.1976C137.48 9.50921 137.353 8.9276 137.1 8.45282C136.855 7.97804 136.542 7.59425 136.162 7.30147C135.79 7.00078 135.387 6.78317 134.952 6.64865C134.516 6.51412 134.109 6.44686 133.729 6.44686H123.403C123.181 6.44686 122.975 6.48643 122.785 6.56556C122.595 6.64469 122.429 6.75547 122.287 6.89791C122.152 7.04034 122.045 7.20651 121.966 7.39643C121.887 7.58634 121.848 7.78812 121.848 8.00177V21.9129C121.848 22.1344 121.887 22.3402 121.966 22.5301C122.045 22.72 122.152 22.8862 122.287 23.0286C122.429 23.1631 122.595 23.27 122.785 23.3491C122.975 23.4282 123.181 23.4678 123.403 23.4678H135.118C135.806 23.4678 136.388 23.3451 136.863 23.0998C137.337 22.8466 137.721 22.5341 138.014 22.1621C138.315 21.7902 138.528 21.3867 138.655 20.9515ZM135.581 18.0553C135.707 18.3718 135.771 18.7318 135.771 19.1354V19.7051C135.771 19.8713 135.747 20.0019 135.699 20.0968C135.652 20.1918 135.597 20.2591 135.533 20.2986C135.47 20.3382 135.399 20.3619 135.32 20.3698C135.24 20.3778 135.173 20.3817 135.118 20.3817H124.934V9.53295H133.729C134.156 9.53295 134.37 9.75451 134.37 10.1976V10.7792C134.37 11.1828 134.307 11.5468 134.18 11.8712C134.061 12.1878 133.887 12.4608 133.658 12.6902C133.428 12.9197 133.151 13.0978 132.827 13.2244C132.503 13.3431 132.139 13.4024 131.735 13.4024H126.168V16.5122H133.124C133.527 16.5122 133.891 16.5755 134.216 16.7022C134.54 16.8208 134.817 16.9949 135.047 17.2244C135.276 17.4539 135.454 17.7308 135.581 18.0553ZM177.611 9.53295H170.81V23.4678H167.723V9.53295H160.91V6.44686H177.611V9.53295ZM73.8089 16.5835C73.8089 17.6201 73.6309 18.5736 73.2748 19.444C72.9187 20.3145 72.4241 21.0662 71.7911 21.6992C71.1581 22.3323 70.4063 22.8268 69.5359 23.1829C68.6734 23.5311 67.7317 23.7052 66.7109 23.7052H62.5329C61.5121 23.7052 60.5665 23.5311 59.696 23.1829C58.8256 22.8268 58.0739 22.3323 57.4408 21.6992C56.8078 21.0662 56.3093 20.3145 55.9453 19.444C55.5892 18.5736 55.4111 17.6201 55.4111 16.5835V13.3312C55.4111 12.3025 55.5892 11.3529 55.9453 10.4825C56.3093 9.60416 56.8078 8.85243 57.4408 8.2273C58.0739 7.59425 58.8256 7.09969 59.696 6.7436C60.5665 6.38752 61.5121 6.20947 62.5329 6.20947H66.7109C67.7317 6.20947 68.6734 6.38752 69.5359 6.7436C70.4063 7.09969 71.1581 7.59425 71.7911 8.2273C72.4241 8.85243 72.9187 9.60416 73.2748 10.4825C73.6309 11.3529 73.8089 12.3025 73.8089 13.3312V16.5835ZM70.7228 13.3312C70.7228 12.7219 70.6239 12.1719 70.4261 11.6813C70.2362 11.1828 69.9632 10.7595 69.6071 10.4113C69.2589 10.0552 68.8356 9.78221 68.3371 9.59229C67.8465 9.39447 67.3044 9.29556 66.7109 9.29556H62.5329C61.9315 9.29556 61.3815 9.39447 60.883 9.59229C60.3924 9.78221 59.969 10.0552 59.613 10.4113C59.2569 10.7595 58.9799 11.1828 58.7821 11.6813C58.5922 12.1719 58.4972 12.7219 58.4972 13.3312V16.5835C58.4972 17.1928 58.5922 17.7467 58.7821 18.2452C58.9799 18.7358 59.2569 19.1591 59.613 19.5152C59.969 19.8634 60.3924 20.1364 60.883 20.3342C61.3815 20.5241 61.9315 20.6191 62.5329 20.6191H66.6872C67.2886 20.6191 67.8346 20.5241 68.3252 20.3342C68.8237 20.1364 69.251 19.8634 69.6071 19.5152C69.9632 19.1591 70.2362 18.7358 70.4261 18.2452C70.6239 17.7467 70.7228 17.1928 70.7228 16.5835V13.3312ZM93.8685 22.1503C93.8685 22.3718 93.825 22.5776 93.7379 22.7675C93.6588 22.9574 93.548 23.1236 93.4056 23.266C93.271 23.4005 93.1088 23.5074 92.9189 23.5865C92.729 23.6656 92.5272 23.7052 92.3136 23.7052C92.1236 23.7052 91.9298 23.6696 91.7319 23.5984C91.542 23.5271 91.3719 23.4124 91.2216 23.2541L79.9455 11.4796V23.4678H76.8594V7.76438C76.8594 7.44786 76.9464 7.16299 77.1205 6.90978C77.3025 6.64865 77.532 6.45478 77.809 6.32817C78.1018 6.20947 78.4025 6.18178 78.7111 6.24508C79.0197 6.30047 79.2848 6.44291 79.5063 6.67239L90.7824 18.4351V6.44686H93.8685V22.1503ZM101.714 16.5122H111.459V13.4024H101.714V16.5122ZM101.714 23.4678H112.848V20.3817H101.738C101.327 20.3817 101.014 20.2749 100.8 20.0612C100.587 19.8476 100.48 19.539 100.48 19.1354V9.53295H112.848V6.44686H98.9486C98.7271 6.44686 98.5213 6.48643 98.3314 6.56556C98.1415 6.64469 97.9753 6.75547 97.8329 6.89791C97.6984 7.04034 97.5916 7.20651 97.5124 7.39643C97.4333 7.58634 97.3937 7.78812 97.3937 8.00177V19.1354C97.3937 19.9346 97.5362 20.6112 97.821 21.1651C98.1138 21.7111 98.4739 22.1582 98.9012 22.5064C99.3364 22.8466 99.8072 23.0919 100.314 23.2423C100.82 23.3926 101.287 23.4678 101.714 23.4678Z" fill="url(#paint0_linear_124_644)"/>
<defs>
<linearGradient id="paint0_linear_124_644" x1="7.50468" y1="-2.667" x2="152.694" y2="77.6977" gradientUnits="userSpaceOnUse">
<stop stop-color="#A4FFB8"/>
<stop offset="1" stop-color="#46A6FF"/>
</linearGradient>
</defs>
</svg>
